<?xml version="1.0" standalone="no"?><!DOCTYPE svg PUBLIC "-//W3C//DTD SVG 1.1//EN" "http://www.w3.org/Graphics/SVG/1.1/DTD/svg11.dtd"><svg t="1645695036001" class="icon" viewBox="0 0 1024 1024" version="1.1" xmlns="http://www.w3.org/2000/svg" p-id="9869" xmlns:xlink="http://www.w3.org/1999/xlink" width="200" height="200"><defs><style type="text/css"></style></defs><path d="M532.359128 532.65032m-437.690699 106.050263a450.3552 450.3552 0 1 0 875.381398-212.100526 450.3552 450.3552 0 1 0-875.381398 212.100526Z" fill="#EBEBFF" p-id="9870"></path><path d="M396.6976 117.76a304.7424 304.7424 0 0 1 162.6112-28.672 581.0176 581.0176 0 0 1 180.6336 51.8144s20.48 107.3152 7.168 171.6224a496.4352 496.4352 0 0 1-43.008 121.6512s-159.1296-86.016-219.9552-155.648a486.8096 486.8096 0 0 1-87.4496-160.768z" fill="#5CBDFF" p-id="9871"></path><path d="M743.424 149.9136a366.1824 366.1824 0 0 1 7.168 144.7936c-14.336 62.6688-26.8288 139.4688-26.8288 139.4688a222.8224 222.8224 0 0 0 122.88 39.3216 640.2048 640.2048 0 0 0 121.6512-10.6496s-16.1792-122.88-71.4752-193.1264a542.5152 542.5152 0 0 0-153.3952-119.808z" fill="#47E289" p-id="9872"></path><path d="M527.1552 741.5808a841.5232 841.5232 0 0 1-125.1328 87.6544c-48.3328 23.1424-143.36 57.1392-143.36 57.1392s119.808 78.6432 210.944 83.968a1141.5552 1141.5552 0 0 0 193.3312-7.7824s-33.9968-151.1424-135.7824-220.9792z" fill="#F4D240" p-id="9873"></path><path d="M92.5696 598.6304s171.6224-14.336 252.1088 24.9856A1119.0272 1119.0272 0 0 1 516.3008 737.28a382.7712 382.7712 0 0 1-114.4832 87.6544 1046.1184 1046.1184 0 0 1-153.6 55.7056s-128.8192-124.7232-155.648-282.0096z" fill="#FF457A" p-id="9874"></path><path d="M137.4208 681.5744a450.56 450.56 0 0 1 734.4128-444.6208 450.56 450.56 0 1 0-636.1088 634.88 448.1024 448.1024 0 0 1-98.304-190.2592z" fill="#FFFFFF" p-id="9875"></path><path d="M990.0032 421.6832A471.04 471.04 0 0 0 130.2528 286.72a471.04 471.04 0 1 0 860.16 134.3488z m-39.7312 9.6256c1.2288 5.3248 1.8432 10.6496 3.072 15.9744a505.6512 505.6512 0 0 1-208.2816-19.0464 670.3104 670.3104 0 0 0 20.48-257.024 426.8032 426.8032 0 0 1 184.7296 260.096zM430.08 114.688a432.7424 432.7424 0 0 1 102.4-12.288 425.7792 425.7792 0 0 1 186.368 43.2128 629.9648 629.9648 0 0 1-13.312 268.9024A513.8432 513.8432 0 0 1 415.5392 119.3984c5.12-1.4336 10.24-3.2768 14.5408-4.7104z m-54.4768 17.6128A555.008 555.008 0 0 0 694.272 453.4272 637.7472 637.7472 0 0 1 532.48 708.1984a554.8032 554.8032 0 0 0-427.4176-131.2768A430.08 430.08 0 0 1 376.6272 132.3008zM114.4832 634.88c-1.2288-5.3248-1.8432-10.6496-3.072-15.9744a512 512 0 0 1 389.12 117.9648 632.6272 632.6272 0 0 1-211.5584 117.1456c-10.4448 3.4816-20.48 6.3488-31.5392 9.216A427.2128 427.2128 0 0 1 114.4832 634.88z m519.168 315.5968a428.2368 428.2368 0 0 1-335.0528-57.7536h2.8672a673.1776 673.1776 0 0 0 229.5808-128.2048 506.2656 506.2656 0 0 1 118.1696 182.0672c-5.3248 0.8192-10.24 2.6624-15.5648 3.8912z m54.8864-17.8176a547.0208 547.0208 0 0 0-126.976-196.608 678.912 678.912 0 0 0 171.2128-269.1072 548.0448 548.0448 0 0 0 162.4064 24.576 543.3344 543.3344 0 0 0 64.3072-4.3008 430.08 430.08 0 0 1-270.9504 445.6448z" fill="#37348F" p-id="9876"></path><path d="M305.9712 505.6512c65.7408-6.3488 154.624-137.4208 154.624-137.4208s-121.6512 96.4608-154.624 96.4608S245.76 409.6 245.76 409.6s4.9152 101.376 60.2112 96.0512z" fill="#37348F" p-id="9877"></path></svg>