<?xml version="1.0" standalone="no"?><!DOCTYPE svg PUBLIC "-//W3C//DTD SVG 1.1//EN" "http://www.w3.org/Graphics/SVG/1.1/DTD/svg11.dtd"><svg t="1645680931971" class="icon" viewBox="0 0 1024 1024" version="1.1" xmlns="http://www.w3.org/2000/svg" p-id="24215" xmlns:xlink="http://www.w3.org/1999/xlink" width="200" height="200"><defs><style type="text/css"></style></defs><path d="M437.4016 956.416c-3.7888 0-6.8608-3.072-6.8608-6.8608v-99.9424h13.7216v99.9424c0 3.7376-3.072 6.8608-6.8608 6.8608zM406.2208 956.416c-3.7888 0-6.8608-3.072-6.8608-6.8608v-99.9424h13.7216v99.9424c0 3.7376-3.072 6.8608-6.8608 6.8608zM468.5312 956.416c-3.7888 0-6.8608-3.072-6.8608-6.8608v-99.9424h13.7216v99.9424c0 3.7376-3.072 6.8608-6.8608 6.8608zM499.712 956.416c-3.7888 0-6.8608-3.072-6.8608-6.8608v-99.9424h13.7216v99.9424c0 3.7376-3.072 6.8608-6.8608 6.8608zM530.8928 956.416c-3.7888 0-6.8608-3.072-6.8608-6.8608v-99.9424h13.7216v99.9424c0 3.7376-3.072 6.8608-6.8608 6.8608zM562.0224 956.416c-3.7888 0-6.8608-3.072-6.8608-6.8608v-99.9424h13.7216v99.9424c0 3.7376-3.072 6.8608-6.8608 6.8608zM593.2032 956.416c-3.7888 0-6.8608-3.072-6.8608-6.8608v-99.9424h13.7216v99.9424c0 3.7376-3.072 6.8608-6.8608 6.8608zM624.384 956.416c-3.7888 0-6.8608-3.072-6.8608-6.8608v-99.9424h13.7216v99.9424c0 3.7376-3.072 6.8608-6.8608 6.8608z" fill="#FAD356" p-id="24216"></path><path d="M638.3104 869.6832H392.2432c-14.6432 0-26.4704-11.8272-26.4704-26.4704v-66.6624h299.008v66.6624a26.4704 26.4704 0 0 1-26.4704 26.4704z" fill="#E3413F" p-id="24217"></path><path d="M409.4464 783.104v52.4288c0 11.776 9.6768 27.4432 30.976 27.4432-37.7344 0-74.6496 9.4208-74.6496-19.8144v-64.256l43.6736 4.1984zM638.5152 77.5168H390.8096c-13.8752 0-25.1392 11.264-25.1392 25.1392v64.3584h298.0352V102.656c0-13.8752-11.264-25.1392-25.1904-25.1392zM689.2032 776.5504H344.064c-56.32 0-101.9392-45.6704-101.9392-101.9392V269.0048c0-56.32 45.6704-101.9392 101.9392-101.9392h345.088c56.32 0 101.9392 45.6704 101.9392 101.9392v405.5552c0.0512 56.32-45.568 101.9904-101.888 101.9904z" fill="#F55651" p-id="24218"></path><path d="M385.5872 167.0144H344.064c-56.32 0-101.9392 45.6704-101.9392 101.9392v405.5552c0 56.32 45.6704 101.9392 101.9392 101.9392h41.5232V167.0144zM689.2032 167.0144h-36.9152v609.4848h36.9152c56.32 0 101.9392-45.6704 101.9392-101.9392V269.0048c0-56.32-45.6192-101.9904-101.9392-101.9904z" fill="#D63232" p-id="24219"></path><path d="M322.4064 169.3184c-18.5856 17.7664-37.4784 50.944-37.4784 112.384v362.0352c0 9.2672-0.2048 14.4384-0.3584 18.688-1.1776 33.792 22.1696 64.512 56.1664 71.3728 3.8912 0.768 7.4752 1.1776 10.7008 1.1776l32.4608 1.8944 1.6384-569.856h-41.472c-7.424 0-14.6432 0.8704-21.6576 2.304zM707.8912 169.3184c18.5856 17.7664 37.4784 50.944 37.4784 112.384v362.0352c0 9.2672 0.2048 14.4384 0.3584 18.688 1.1776 33.792-22.1696 64.512-56.1664 71.3728-3.8912 0.768-7.4752 1.1776-10.7008 1.1776l-32.4608 1.8944-1.6384-569.856h41.5232c7.3728 0 14.592 0.8704 21.6064 2.304z" fill="#E3413F" p-id="24220"></path><path d="M623.9232 216.2688H496.3328c-39.2192 0-41.8304 29.3888-41.8304 58.1632v438.528c0 17.6128-6.5536 63.5392 76.1344 63.5392-82.9952 0-126.1568 19.2-126.1568-47.6672V236.4416c0-26.4704-1.024-69.4784 31.1808-69.4784h184.2176l4.0448 49.3056z" fill="#F67969" p-id="24221"></path><path d="M581.7344 216.2688v470.5792c0 40.4992-9.984 51.4048-51.4048 51.4048H458.752c-18.6368 0-49.7152 3.6864-52.5312-41.9328 0.2048 48.6912 6.8608 76.3904 35.84 75.776s153.4976 0 153.4976 0 28.8256-2.2528 28.8256-56.6272c0-43.52 2.2528-366.848-5.376-499.1488h-37.2736zM631.7568 97.5872h27.2896v41.8304h-27.2896z" fill="#E3413F" p-id="24222"></path><path d="M659.0464 103.3216H398.592v43.4688h-32.9216V79.616h293.376z" fill="#F67969" p-id="24223"></path><path d="M627.968 157.5424l-2.8672 7.68c-1.1776-0.4608-1.6896-0.8192-1.7408-0.8192 0.1536 0.1024 12.6464 9.6768 12.6464 58.3168v491.2128c0 31.8464-6.0416 55.1936-17.2032 67.0208h36.096c9.3696-20.736 11.8784-45.9776 11.8784-67.0208V222.7712c0-32.1024-5.0688-52.3776-11.264-65.1776h-27.5456zM392.2432 222.7712c0-48.64 12.544-58.2656 12.6464-58.3168 0 0-0.512 0.3584-1.7408 0.8192l-2.8672-7.68H372.736c-6.144 12.8-11.264 33.0752-11.264 65.1776v491.2128c0 21.0432 2.5088 46.2848 11.8784 67.0208h36.096c-11.1616-11.776-17.2032-35.1232-17.2032-67.0208V222.7712z" fill="#FBD661" p-id="24224"></path><path d="M616.0896 174.9504c-0.768-0.5632-1.2288-0.9728-1.3824-1.1264 0.1024 0.1024 8.4992 10.0352 8.4992 48.9472v491.2128c0 27.7504-5.0176 48.9984-13.7216 58.2144l-4.1472 4.4032h64.9728c6.0928-17.408 9.216-38.4 9.216-62.6176V222.7712c0-21.8624-2.304-40.4992-6.8096-55.7056h-51.2512l-5.376 7.8848zM348.7232 222.7712v491.2128c0 24.2176 3.1232 45.1584 9.216 62.6176H422.912l-4.1472-4.4032c-8.704-9.216-13.7216-30.4128-13.7216-58.2144V222.7712c0-38.912 43.3664-54.272 43.4176-54.3744-0.1024 0.1024-33.536 0.2048-34.304 0.7168l-7.3728-2.048H355.5328c-4.5056 15.1552-6.8096 33.792-6.8096 55.7056z" fill="#FACF5D" p-id="24225"></path><path d="M621.312 809.5744v33.2288H399.0016c-16.128 0-23.9104-2.7136-30.208-13.824-11.1616 20.8896 5.4272 40.704 27.9552 40.704h229.7344c12.1344 0 35.0208 0.1024 35.0208-30.0032 0-30.1568-2.9696-25.9584-2.9696-25.9584l-37.2224-4.1472z" fill="#D63232" p-id="24226"></path><path d="M666.8288 173.4144H607.744c-1.9968-0.3072 4.8128 4.608 4.8128 4.608 0.2048 0.0512 15.6672 4.864 20.1216 26.7776h51.9168c-2.5088-14.5408-9.5232-24.576-17.7664-31.3856zM414.5152 164.7616h-47.7184c-8.448 9.4208-15.616 23.2448-18.2784 43.3152h53.2992c4.608-30.2592 20.48-36.864 20.6848-36.9152 0 0-0.9216 0.3584-2.9696 0.768l-5.0176-7.168z" fill="#F8B031" p-id="24227"></path><path d="M365.6704 122.2656h298.0352v44.7488H365.6704zM636.416 733.2352c-2.5088 21.248-11.2128 37.0176-25.3952 45.6704h54.9376c11.008-14.0288 15.7184-30.4128 17.3568-45.6704h-46.8992zM361.5232 776.5504l58.4192-2.1504c-13.4144-14.1824-17.152-2.6112-19.5072-37.5296l-48.896-2.2528c1.4848 25.0368-0.4096 18.8416 9.984 41.9328z" fill="#F8B031" p-id="24228"></path><path d="M365.6704 776.5504h299.1616v43.3152H365.6704z" fill="#F8B031" p-id="24229"></path><path d="M365.7728 819.8656h43.6736v-36.7616l-43.6736-4.1472v40.9088z" fill="#F7C046" p-id="24230"></path><path d="M620.9536 819.8656h43.6736v-36.7616l-43.6736-4.1472v40.9088z" fill="#EA9518" p-id="24231"></path><path d="M367.36 122.2656h31.232v39.3728h-31.232z" fill="#FACF5D" p-id="24232"></path><path d="M631.7568 122.2656h31.232v39.3728h-31.232z" fill="#EA9518" p-id="24233"></path><path d="M689.2032 786.7904H344.064c-61.8496 0-112.2304-50.3296-112.2304-112.1792V269.0048c0-61.8496 50.3296-112.2304 112.2304-112.2304h345.088c61.8496 0 112.1792 50.3296 112.1792 112.2304v405.5552c0.0512 61.9008-50.2784 112.2304-112.128 112.2304zM344.064 177.3056c-50.5856 0-91.7504 41.1648-91.7504 91.7504v405.5552c0 50.5856 41.1648 91.6992 91.7504 91.6992h345.088c50.5856 0 91.6992-41.1648 91.6992-91.6992V269.0048c0-50.5856-41.1648-91.7504-91.6992-91.7504H344.064z" fill="#4B2254" p-id="24234"></path><path d="M422.912 786.7904H357.9392c-4.352 0-8.2432-2.7648-9.6768-6.8608-6.5024-18.5856-9.7792-40.7552-9.7792-65.9456V222.7712c0-22.272 8.4992-58.112 31.8976-65.536 1.024-0.3072 1.9968-0.4608 3.1232-0.4608l45.568 0.1024c3.1232-0.256 8.6528 0.1024 20.992 1.024 2.5088 0.2048 4.4544 0.3072 5.3248 0.3584 2.4064-0.1024 4.9152 0.8704 6.912 2.6112 4.1984 3.7888 4.5568 10.24 0.768 14.4384v0.0512c-1.4848 1.6384-2.7648 2.5088-4.5056 2.9696-6.912 3.0208-33.2288 16.384-33.2288 44.4928v491.2128c0 29.2352 5.632 45.568 10.9056 51.1488l4.1472 4.4032c2.816 2.9696 3.584 7.3216 1.9456 11.1104-1.6384 3.6352-5.3248 6.0928-9.4208 6.0928z m-57.4976-20.48h37.7344c-7.1168-16.4352-8.3968-38.656-8.3968-52.3264V222.7712c0-20.4288 9.1136-35.2256 19.3536-45.4656l-38.7584-0.1024c-8.8576 4.352-16.4352 24.9344-16.4352 45.568v491.2128c0.0512 19.7632 2.2016 37.3248 6.5024 52.3264z" fill="#4B2254" p-id="24235"></path><path d="M675.4816 786.7904h-64.9728c-4.096 0-7.7824-2.4576-9.4208-6.1952-1.6384-3.7376-0.8704-8.1408 1.9456-11.1104l4.1472-4.4032c5.2736-5.5808 10.9056-21.9648 10.9056-51.1488V222.7712c0-28.16-26.3168-41.472-33.2288-44.4928-1.6896-0.4096-3.0208-1.3312-4.5056-2.9696v-0.0512a10.2144 10.2144 0 0 1 7.6288-17.0496h0.0512c0.8192-0.0512 2.816-0.2048 5.3248-0.3584 12.3392-0.8704 17.8688-1.28 20.992-1.024l45.568-0.1024c1.0752 0.0512 2.1504 0.1536 3.1232 0.4608 23.3984 7.4752 31.8976 43.3152 31.8976 65.536v491.2128c0 25.1904-3.2768 47.36-9.7792 65.9456-1.4336 4.1472-5.3248 6.912-9.6768 6.912z m-45.2608-20.48h37.7344c4.3008-15.0016 6.4512-32.5632 6.4512-52.3264V222.7712c0-20.5824-7.5264-41.1648-16.4352-45.568l-38.7584 0.1024c10.24 10.24 19.3536 25.0368 19.3536 45.4656v491.2128c0.0512 13.6704-1.2288 35.8912-8.3456 52.3264z" fill="#4B2254" p-id="24236"></path><path d="M638.3616 879.9232H392.2432c-20.224 0-36.7104-16.4864-36.7104-36.7104v-66.6624c0-5.632 4.608-10.24 10.24-10.24h299.008c5.632 0 10.24 4.608 10.24 10.24v66.6624c0 20.224-16.4352 36.7104-36.6592 36.7104z m-262.3488-93.1328v56.4224c0 8.96 7.2704 16.2304 16.2304 16.2304h246.0672c8.96 0 16.2304-7.2704 16.2304-16.2304v-56.4224h-278.528z" fill="#4B2254" p-id="24237"></path><path d="M663.7056 177.3056H365.6704c-5.632 0-10.24-4.608-10.24-10.24V102.656c0-19.5072 15.872-35.3792 35.3792-35.3792h247.7056c19.5072 0 35.3792 15.872 35.3792 35.3792v64.3584c0.0512 5.6832-4.5568 10.2912-10.1888 10.2912z m-287.7952-20.48h277.5552V102.656c0-8.2432-6.7072-14.8992-14.8992-14.8992H390.8096c-8.2432 0-14.8992 6.7072-14.8992 14.8992v54.1696z" fill="#4B2254" p-id="24238"></path></svg>