<?xml version="1.0" standalone="no"?><!DOCTYPE svg PUBLIC "-//W3C//DTD SVG 1.1//EN" "http://www.w3.org/Graphics/SVG/1.1/DTD/svg11.dtd"><svg t="1645713689321" class="icon" viewBox="0 0 1024 1024" version="1.1" xmlns="http://www.w3.org/2000/svg" p-id="1136" xmlns:xlink="http://www.w3.org/1999/xlink" width="128" height="128"><defs><style type="text/css"></style></defs><path d="M902.921667 121.238953v-0.836367a119.20058 119.20058 0 1 0-238.389039 0v0.824246a115.842988 115.842988 0 0 0-114.012676 115.818745 115.842988 115.842988 0 0 0 115.842988 115.842988H900.036804a115.830867 115.830867 0 0 0 115.830867-115.842988 115.842988 115.842988 0 0 0-112.946004-115.806624z" fill="#E3E2E4" p-id="1137"></path><path d="M935.491522 431.749555a187.879702 187.879702 0 0 0-52.206314-94.473187 190.449411 190.449411 0 0 0-28.036501-22.630413 187.019092 187.019092 0 0 0-105.38233-30.981969l-12.412182 0.121213-1.212127-5.393966a245.673922 245.673922 0 0 0-14.375828-46.242649 247.27393 247.27393 0 0 0-178.109957-146.061317 250.80122 250.80122 0 0 0-99.661091 0 246.21938 246.21938 0 0 0-88.485279 37.236545 247.27393 247.27393 0 0 0-104.03687 155.297725c-0.533336 2.593952-1.018187 5.187904-1.454552 7.806099-5.709119-1.745463-11.503086-3.236379-17.345539-4.424264a190.449411 190.449411 0 0 0-75.709459 0 187.879702 187.879702 0 0 0-95.042887 51.236613 189.237284 189.237284 0 0 0-22.933445 27.794074 187.334245 187.334245 0 0 0-28.291047 67.248812 189.564559 189.564559 0 0 0 0 75.70946 187.019092 187.019092 0 0 0 28.291047 67.248812 188.413038 188.413038 0 0 0 82.67919 68.073058 187.043334 187.043334 0 0 0 35.309263 10.909144 24.242542 24.242542 0 0 0 9.697017-47.503261 138.679463 138.679463 0 0 1-26.145582-8.109131 139.855226 139.855226 0 0 1-74.242785-74.206421 137.843095 137.843095 0 0 1-8.121252-26.145582 140.94614 140.94614 0 0 1 0-56.26694 138.703705 138.703705 0 0 1 20.969799-49.818425 139.746134 139.746134 0 0 1 61.382117-50.557821 138.715826 138.715826 0 0 1 26.145581-8.121252 141.818872 141.818872 0 0 1 56.266941 0A138.049156 138.049156 0 0 1 248.154845 337.203641l1.018187 0.412123a139.273405 139.273405 0 0 1 23.672842 12.848547c0.86061 0.581821 1.72122 1.212127 2.56971 1.781827a140.388562 140.388562 0 0 1 35.151686 35.927447 24.242542 24.242542 0 1 0 40.169892-27.151647A188.897889 188.897889 0 0 0 300.009643 310.294419c-1.284855-0.872732-2.593952-1.733342-3.90305-2.56971a194.607007 194.607007 0 0 1 2.95759-19.394034 197.903993 197.903993 0 0 1 29.915297-71.079133 200.15855 200.15855 0 0 1 53.757838-53.757838 197.576719 197.576719 0 0 1 71.079133-29.915297 201.807042 201.807042 0 0 1 80.230694 0 198.788846 198.788846 0 0 1 154.740147 154.76439l0.884852 3.963655 6.945489 30.921363a11.709148 11.709148 0 0 0 11.224297 9.236409h0.254546l27.248618-0.157577 12.290969-0.133334h2.739407a140.982504 140.982504 0 0 1 28.145591 2.533346 139.249162 139.249162 0 0 1 109.56417 107.297491 140.473411 140.473411 0 0 1 0.593942 56.230577 138.485522 138.485522 0 0 1-7.830341 26.218309 139.176435 139.176435 0 0 1-127.540014 86.48527l-30.03651 0.315153a24.242542 24.242542 0 0 0 0.242425 48.485084h0.266668l30.03651-0.315153a188.631221 188.631221 0 0 0 37.794123-4.218202 187.261517 187.261517 0 0 0 66.921538-28.994081 188.219098 188.219098 0 0 0 76.95795-194.425188z" fill="#333333" p-id="1138"></path><path d="M586.868008 702.668449a109.564169 109.564169 0 0 1-154.946208 0 109.564169 109.564169 0 0 1 0-154.947421l77.471892-77.473104 77.465831 77.464619a109.564169 109.564169 0 0 1 0.008485 154.955906zM386.999157 911.747042a109.564169 109.564169 0 0 1-154.947421 0 109.564169 109.564169 0 0 1 0-154.946209l77.515529-77.517952 77.467043 77.465831a109.564169 109.564169 0 0 1 0 154.946208zM724.94868 991.909856a109.564169 109.564169 0 0 1-154.946209 0 109.564169 109.564169 0 0 1 0-154.946208l77.481589-77.482802 77.46462 77.465832a109.564169 109.564169 0 0 1 0 154.963178z" fill="#69BBFF" p-id="1139"></path></svg>