<?xml version="1.0" standalone="no"?><!DOCTYPE svg PUBLIC "-//W3C//DTD SVG 1.1//EN" "http://www.w3.org/Graphics/SVG/1.1/DTD/svg11.dtd"><svg t="1645695033662" class="icon" viewBox="0 0 1024 1024" version="1.1" xmlns="http://www.w3.org/2000/svg" p-id="9722" xmlns:xlink="http://www.w3.org/1999/xlink" width="200" height="200"><defs><style type="text/css"></style></defs><path d="M659.6608 918.3232H336.4864a268.0832 268.0832 0 0 1-266.24-241.4592l-18.432-184.32h893.1328l-18.432 184.32a268.0832 268.0832 0 0 1-266.8544 241.4592z" fill="#EBEBFF" p-id="9723"></path><path d="M60.0064 492.7488h879.4112v86.8352H60.0064z" fill="#47E289" p-id="9724"></path><path d="M646.9632 918.3232V1003.52H349.184v-85.1968" fill="#5CBDFF" p-id="9725"></path><path d="M311.9104 290.6112c-4.7104-78.0288-91.9552-123.904-170.1888-90.3168-99.328 42.5984-78.0288 180.8384 15.9744 196.8128 82.1248 13.9264 159.5392-28.4672 154.2144-106.496z" fill="#F4D240" p-id="9726"></path><path d="M170.5984 233.0624a120.4224 120.4224 0 0 1 117.76 11.0592 116.1216 116.1216 0 0 0-143.36-38.5024 97.6896 97.6896 0 0 0-20.48 169.7792 97.8944 97.8944 0 0 1 46.08-142.336z" fill="#FFFFFF" p-id="9727"></path><path d="M93.7984 506.0608H157.696v63.8976H93.7984zM242.688 506.0608h63.8976v63.8976h-63.8976zM391.5776 506.0608h63.8976v63.8976h-63.8976zM540.672 506.0608h63.8976v63.8976H540.672zM689.5616 506.0608h63.8976v63.8976h-63.8976zM838.4512 506.0608h63.8976v63.8976h-63.8976z" fill="#FF457A" p-id="9728"></path><path d="M116.3264 676.864l-18.432-184.32H51.2l18.432 184.32a268.0832 268.0832 0 0 0 266.24 241.4592h46.8992A268.0832 268.0832 0 0 1 116.3264 676.864z" fill="#FFFFFF" p-id="9729"></path><path d="M944.9472 472.2688H51.2a20.48 20.48 0 0 0-20.48 22.528l18.432 184.32A286.72 286.72 0 0 0 327.68 938.5984V1003.52a20.48 20.48 0 0 0 20.48 20.48h298.8032a20.48 20.48 0 0 0 20.48-20.48v-64.9216a286.72 286.72 0 0 0 279.3472-259.6864l18.432-184.32a20.48 20.48 0 0 0-20.48-22.528z m-48.7424 40.96l-4.5056 44.2368H78.2336l-4.5056-44.2368zM89.9072 675.84L81.92 598.4256h805.6832L880.64 676.864a267.8784 267.8784 0 0 1-132.096 204.8 248.4224 248.4224 0 0 1-88.064 16.1792H336.4864A246.9888 246.9888 0 0 1 89.9072 675.84zM368.64 983.04v-44.2368h257.8432V983.04zM970.752 227.9424l-638.3616 66.1504v-4.9152a124.5184 124.5184 0 0 0-15.7696-52.6336l619.1104-158.3104a20.48 20.48 0 1 0-10.24-39.7312L286.72 201.728a134.5536 134.5536 0 0 0-16.384-12.0832 150.528 150.528 0 0 0-137.4208-8.192 123.904 123.904 0 0 0-76.5952 130.4576 118.9888 118.9888 0 0 0 97.28 105.472 207.2576 207.2576 0 0 0 34.4064 2.8672 158.5152 158.5152 0 0 0 106.7008-37.2736 111.616 111.616 0 0 0 30.9248-46.8992l649.216-67.3792a20.48 20.48 0 0 0-4.3008-40.96z m-702.8736 124.5184a129.6384 129.6384 0 0 1-106.9056 24.3712 77.824 77.824 0 0 1-63.488-69.632 81.92 81.92 0 0 1 52.0192-88.064 115.712 115.712 0 0 1 45.4656-9.4208 104.2432 104.2432 0 0 1 54.4768 14.9504 85.4016 85.4016 0 0 1 40.96 67.3792v6.3488l-102.4 10.6496a20.48 20.48 0 0 0 2.048 40.96h2.048l86.016-9.0112a73.9328 73.9328 0 0 1-10.24 11.4688z" fill="#37348F" p-id="9730"></path></svg>