<?xml version="1.0" standalone="no"?><!DOCTYPE svg PUBLIC "-//W3C//DTD SVG 1.1//EN" "http://www.w3.org/Graphics/SVG/1.1/DTD/svg11.dtd"><svg t="1645680935243" class="icon" viewBox="0 0 1024 1024" version="1.1" xmlns="http://www.w3.org/2000/svg" p-id="24377" xmlns:xlink="http://www.w3.org/1999/xlink" width="200" height="200"><defs><style type="text/css"></style></defs><path d="M705.430551 912.754319H325.266179c-94.054075 0-170.266862-76.212787-170.266862-170.266862V285.360664c0-94.054075 76.212787-170.266862 170.266862-170.266862h380.164372c94.054075 0 170.266862 76.212787 170.266862 170.266862v457.076818c0 94.054075-76.262762 170.316837-170.266862 170.316837z" fill="#F55651" p-id="24378"></path><path d="M207.173841 437.98614v269.218545c0 58.671352-1.749146 132.685212 72.114788 199.052806-56.272523-21.689409-124.289312-67.766911-124.289312-153.82489V398.405466l52.174524 39.580674z" fill="#F67969" p-id="24379"></path><path d="M325.266179 912.754319h380.164372c94.054075 0 170.266862-76.212787 170.266862-170.266862V388.410347l-53.823719 46.577257v282.012298c0 39.530698-16.591898 144.279551-114.843923 144.279551h-371.318692c-84.208882 0-168.217862-58.171596-180.761738-123.839531v4.99756c0.049976 94.054075 76.262762 170.316837 170.316838 170.316837z" fill="#E3413F" p-id="24380"></path><path d="M154.999317 285.360664v129.686676c31.184773 33.183797 87.657199 74.163787 176.463836 74.163787 33.483651 100.800781 110.546022 133.035041 188.058174 133.035042 79.861005 0 158.872426-75.61308 169.367302-134.934114 40.630161 0.849585 119.491654-8.096047 186.808784-75.113324V285.360664c0-44.27838-16.891752-84.608687-44.628209-114.8939L166.493704 223.840703c-7.396388 19.090678-11.494388 39.830551-11.494387 61.519961z" fill="#E3413F" p-id="24381"></path><path d="M705.430551 922.749439H325.266179c-99.401464 0-180.261981-80.860517-180.261982-180.261982V285.360664c0-99.401464 80.860517-180.261981 180.261982-180.261982h380.164372c99.401464 0 180.261981 80.860517 180.261982 180.261982v457.076818c0 99.401464-80.860517 180.311957-180.261982 180.311957zM325.266179 125.038946c-88.406833 0-160.271742 71.914885-160.271743 160.271742v457.076818c0 88.406833 71.914885 160.271742 160.271743 160.271742h380.164372c88.356857 0 160.271742-71.914885 160.271743-160.271742V285.360664c0-88.406833-71.914885-160.271742-160.271743-160.271743H325.266179z" fill="#4B2254" p-id="24382"></path><path d="M155.948853 267.119571c0 157.073304 93.154514 175.714202 194.405076 175.714202h329.938897c101.250561 0 194.405076-51.824695 194.405075-175.714202-9.095559-85.458272-81.410249-152.025769-169.317325-152.025769H325.266179c-87.857101-0.049976-160.171791 66.567496-169.317326 152.025769z" fill="#F55651" p-id="24383"></path><path d="M204.775012 241.232211c30.884919-64.718399 76.612592-77.162323 161.121328-77.162323h333.587115c79.960957 0 118.642069 13.543387 136.283456 23.438555-30.135286-43.778624-80.510688-72.464617-137.682772-72.464617H325.116252c-86.207906 0-157.12328 65.318106-166.068912 149.127184-4.097999 56.572377 2.848609 86.807613 23.888336 114.294193 5.297413 4.247926 25.637482 28.286188 35.582626 24.587994-13.443436-23.688433-27.636506-61.270083-27.636506-108.546999 0-18.490971 5.897121-36.582138 13.893216-53.273987z" fill="#F67969" p-id="24384"></path><path d="M722.422255 115.943387c0.649683 0.249878 105.848316 40.880039 105.848316 151.925817 0 111.445583-118.342216 132.385359-196.803904 132.385359H405.62694c-61.220107 0-173.115471 14.043143-236.434553-65.767887-0.199902 3.198438 0 6.796681 0.499756 10.744754 32.434163 62.969253 63.169156 97.552367 180.661786 97.552367h329.938897c101.250561 0 184.559883-77.062372 194.405075-175.714202-8.495852-79.861005-72.214739-143.180088-152.275646-151.126208z" fill="#E3413F" p-id="24385"></path><path d="M680.292826 452.828892H350.353929c-95.153538 0-204.400195-21.089702-204.400195-185.709321 0-0.349829 0-0.699658 0.049975-1.049488 9.795217-91.755198 86.857589-160.971401 179.212494-160.971401h380.164373c92.40488 0 169.467252 69.216203 179.212494 160.971401 0.049976 0.349829 0.049976 0.699658 0.049975 1.049488 0.049976 136.883163-105.548463 185.709322-204.350219 185.709321zM165.943973 267.619327c0.199902 145.179112 88.756662 165.169351 184.409956 165.16935h329.938897c89.00654 0 184.110102-43.428795 184.409956-165.16935-8.945632-81.310298-77.31225-142.580381-159.322206-142.580381H325.266179c-81.95998 0-150.376574 61.270083-159.322206 142.580381z" fill="#4B2254" p-id="24386"></path><path d="M511.225378 438.785749m-139.581845 0a139.581845 139.581845 0 1 0 279.16369 0 139.581845 139.581845 0 1 0-279.16369 0Z" fill="#F8B031" p-id="24387"></path><path d="M498.181747 410.39961m-111.195705 0a111.195705 111.195705 0 1 0 222.39141 0 111.195705 111.195705 0 1 0-222.39141 0Z" fill="#FACF5D" p-id="24388"></path><path d="M511.225378 588.362714c-82.459736 0-149.576964-67.117228-149.576964-149.576965s67.117228-149.576964 149.576964-149.576964 149.576964 67.117228 149.576965 149.576964-67.117228 149.576964-149.576965 149.576965z m0-279.16369c-71.465105 0-129.586725 58.12162-129.586725 129.586725 0 71.465105 58.12162 129.586725 129.586725 129.586725s129.586725-58.12162 129.586725-129.586725c0-71.465105-58.12162-129.586725-129.586725-129.586725z" fill="#4B2254" p-id="24389"></path></svg>