<?xml version="1.0" standalone="no"?><!DOCTYPE svg PUBLIC "-//W3C//DTD SVG 1.1//EN" "http://www.w3.org/Graphics/SVG/1.1/DTD/svg11.dtd"><svg t="1645680937501" class="icon" viewBox="0 0 1024 1024" version="1.1" xmlns="http://www.w3.org/2000/svg" p-id="24528" xmlns:xlink="http://www.w3.org/1999/xlink" width="200" height="200"><defs><style type="text/css"></style></defs><path d="M786.1248 114.7392H257.3824c-18.1248 0-35.3792 7.8336-47.3088 21.504L153.344 201.3696A62.96064 62.96064 0 0 0 138.4448 250.88l86.9888 628.224h586.8544l87.3984-631.4496a62.976 62.976 0 0 0-13.9264-48.384l-51.4048-61.9008a62.6688 62.6688 0 0 0-48.2304-22.6304z" fill="#F67969" p-id="24529"></path><path d="M299.6224 172.288L392.0896 847.872h262.3488l89.344-675.584z" fill="#F55651" p-id="24530"></path><path d="M231.8848 120.1664c-8.2432 3.6864-15.7184 9.1136-21.8112 16.0768L153.344 201.3696A62.7712 62.7712 0 0 0 138.4448 250.88l86.9888 628.224h105.0112L231.8848 120.1664zM834.4064 137.3696a62.59712 62.59712 0 0 0-22.0672-16.896L709.2736 879.104h103.0144l87.3984-631.4496a62.976 62.976 0 0 0-13.9264-48.384l-51.3536-61.9008z" fill="#E3413F" p-id="24531"></path><path d="M244.0192 186.7776L150.2208 288.3072l-12.3392-69.12 96.3072-99.9936zM802.1504 191.8464l93.7984 101.5296 12.3392-69.1712-96.3072-99.9936z" fill="#F55651" p-id="24532"></path><path d="M812.288 889.344H225.4336c-5.12 0-9.4208-3.7888-10.1376-8.8576L128.3072 252.2624c-2.7648-20.8384 3.5328-41.8304 17.3056-57.6512l56.7808-65.1264c13.8752-15.9232 33.9456-25.0368 55.04-25.0368h528.6912c21.76 0 42.24 9.6256 56.1664 26.368l51.4048 61.9008c12.9536 15.616 18.8928 36.1472 16.1792 56.2688l-87.3984 631.552c-0.768 5.0176-5.0688 8.8064-10.1888 8.8064z m-577.9456-20.48H803.328l86.1696-622.6432c1.8944-14.4384-2.3552-29.184-11.6736-40.3968l-51.4048-61.9008c-9.984-12.032-24.7296-18.944-40.3968-18.944H257.3824c-15.1552 0-29.5936 6.5536-39.5776 18.0224L161.0752 208.0768a52.61312 52.61312 0 0 0-12.4928 41.4208L234.3424 868.864z" fill="#4B2254" p-id="24533"></path><path d="M521.6768 644.5568m-170.9056 0a170.9056 170.9056 0 1 0 341.8112 0 170.9056 170.9056 0 1 0-341.8112 0Z" fill="#FF624D" p-id="24534"></path><path d="M521.6768 677.2736m-109.1584 0a109.1584 109.1584 0 1 0 218.3168 0 109.1584 109.1584 0 1 0-218.3168 0Z" fill="#F6844B" p-id="24535"></path><path d="M509.5424 528.64c-2.9696-3.1232-8.2432-0.9728-8.0896 3.328 0.6144 20.736-1.6896 63.6416-26.8288 100.0448-34.6112 50.0736-40.8064 145.8688 44.4928 145.8688 83.3536 0.0512 115.3536-119.1936-9.5744-249.2416z" fill="#FFFFFF" p-id="24536"></path><path d="M522.24 647.0144c-3.9936-4.5056-11.4176-1.8944-11.776 4.096-0.8192 12.3392-4.0448 29.44-14.4384 44.4928-18.8928 27.3408-22.272 79.616 24.2688 79.616 43.8272 0.0512 61.6448-60.3136 1.9456-128.2048z" fill="#FBDB71" p-id="24537"></path><path d="M551.168 801.5872h-14.336v-35.5328a15.1552 15.1552 0 1 0-30.3104 0v35.5328h-14.336c-7.0144 0-12.3904 6.2464-11.3152 13.1584l7.3728 48.128c0.8704 5.5808 5.6832 9.728 11.3152 9.728h44.1856c5.632 0 10.4448-4.096 11.3152-9.728l7.3728-48.128c1.1264-6.912-4.2496-13.1584-11.264-13.1584z" fill="#903635" p-id="24538"></path><path d="M813.5168 849.5616c17.4592 0 31.5904 14.1312 31.5904 31.5904v5.0688c0 17.4592-14.1312 31.5904-31.5904 31.5904H227.5328c-17.4592 0-31.5904-14.1312-31.5904-31.5904v-5.0688c0-17.4592 14.1312-31.5904 31.5904-31.5904h585.984z" fill="#F8B031" p-id="24539"></path><path d="M813.5168 849.5616H227.5328c-17.4592 0-31.5904 14.1312-31.5904 31.5904v3.328c4.6592 2.7136 10.0864 4.3008 15.872 4.3008h585.984c17.4592 0 31.5904-14.1312 31.5904-31.5904v-3.328a31.3344 31.3344 0 0 0-15.872-4.3008z" fill="#FACF5D" p-id="24540"></path><path d="M813.5168 928.0512H227.5328c-23.0912 0-41.8304-18.7904-41.8304-41.8304v-5.0688c0-23.0912 18.7904-41.8304 41.8304-41.8304h585.984c23.04 0 41.8304 18.7904 41.8304 41.8304v5.0688c0 23.0912-18.7392 41.8304-41.8304 41.8304zM227.5328 859.8016c-11.776 0-21.3504 9.5744-21.3504 21.3504v5.0688c0 11.776 9.5744 21.3504 21.3504 21.3504h585.984c11.776 0 21.3504-9.5744 21.3504-21.3504v-5.0688c0-11.776-9.5744-21.3504-21.3504-21.3504H227.5328z" fill="#4B2254" p-id="24541"></path><path d="M325.7344 852.9408c-5.0688 0-9.472-3.7376-10.1376-8.9088L222.8224 129.6384c-0.7168-5.632 3.2256-10.752 8.8576-11.4688 5.632-0.7168 10.752 3.2256 11.4688 8.8576l92.7744 714.3424c0.7168 5.632-3.2256 10.752-8.8576 11.4688-0.4608 0.0512-0.8704 0.1024-1.3312 0.1024zM719.0528 852.9408c-0.4608 0-0.8704 0-1.3312-0.1024a10.2912 10.2912 0 0 1-8.8576-11.4688L801.6384 126.976c0.7168-5.632 5.8368-9.5744 11.4688-8.8576a10.2912 10.2912 0 0 1 8.8576 11.4688l-92.7744 714.3424a10.26048 10.26048 0 0 1-10.1376 9.0112z" fill="#4B2254" p-id="24542"></path></svg>