<?xml version="1.0" standalone="no"?><!DOCTYPE svg PUBLIC "-//W3C//DTD SVG 1.1//EN" "http://www.w3.org/Graphics/SVG/1.1/DTD/svg11.dtd"><svg t="1645713685561" class="icon" viewBox="0 0 1212 1024" version="1.1" xmlns="http://www.w3.org/2000/svg" p-id="974" xmlns:xlink="http://www.w3.org/1999/xlink" width="151.5" height="128"><defs><style type="text/css"></style></defs><path d="M1076.455316 144.215712v-1.019398a143.210877 143.210877 0 0 0-286.40719 0v1.004835a139.16241 139.16241 0 0 0-136.977985 139.147847 139.176973 139.176973 0 0 0 139.176972 139.16241H1072.989362a139.16241 139.16241 0 0 0 139.16241-139.16241 139.16241 139.16241 0 0 0-135.696456-139.133284z" fill="#E3E2E4" p-id="975"></path><path d="M1115.585642 517.257182a225.723875 225.723875 0 0 0-62.722112-113.502702 228.811195 228.811195 0 0 0-33.683827-27.188805 224.689914 224.689914 0 0 0-126.60925-37.222595l-14.912338 0.145628-1.456283-6.48046a295.159452 295.159452 0 0 0-17.271517-55.557198 297.081745 297.081745 0 0 0-213.986234-175.48211 301.319529 301.319529 0 0 0-119.735594 0 295.814779 295.814779 0 0 0-106.308663 44.737016 297.081745 297.081745 0 0 0-124.992776 186.578986c-0.640765 3.116446-1.223278 6.232892-1.747539 9.378463-6.859093-2.097048-13.820126-3.888276-20.839411-5.315433a228.811195 228.811195 0 0 0-90.95944 0 225.723875 225.723875 0 0 0-114.187156 61.557085 227.354912 227.354912 0 0 0-27.552875 33.392571 225.068548 225.068548 0 0 0-33.989647 80.780021 227.748109 227.748109 0 0 0 0 90.959441 224.689914 224.689914 0 0 0 33.989647 80.794584 226.36464 226.36464 0 0 0 99.333068 81.784857 224.71904 224.71904 0 0 0 42.421525 13.106548 29.125661 29.125661 0 0 0 11.650265-57.071734 166.613345 166.613345 0 0 1-31.412026-9.742533 168.02594 168.02594 0 0 1-89.182775-89.197338 165.60851 165.60851 0 0 1-9.757096-31.412026 169.336595 169.336595 0 0 1 0-67.60066 166.642471 166.642471 0 0 1 25.193697-59.853234 167.894875 167.894875 0 0 1 73.746174-60.741566 166.657034 166.657034 0 0 1 31.412026-9.757097 170.385119 170.385119 0 0 1 67.60066 0 165.856078 165.856078 0 0 1 30.188748 9.26196l1.223278 0.495137a167.326924 167.326924 0 0 1 28.441208 15.4366c1.033961 0.699016 2.067922 1.456283 3.08732 2.140736a168.666705 168.666705 0 0 1 42.232209 43.16423 29.125661 29.125661 0 0 0 48.261221-32.62074 226.947153 226.947153 0 0 0-60.945447-60.945447c-1.54366-1.048524-3.116446-2.082485-4.689231-3.08732a233.806246 233.806246 0 0 1 3.553331-23.300529 237.767336 237.767336 0 0 1 35.941066-85.396439 240.476023 240.476023 0 0 1 64.586153-64.586154 237.37414 237.37414 0 0 1 85.396439-35.941066 242.456567 242.456567 0 0 1 96.391376 0 238.830423 238.830423 0 0 1 185.894534 185.996473l1.063086 4.762046 8.344502 37.164344a14.053132 14.053132 0 0 0 13.485182 11.082314h0.305819l32.737243-0.189317 14.766711-0.160191h3.291199a169.380283 169.380283 0 0 1 33.814893 3.043632 167.297799 167.297799 0 0 1 131.633426 128.910177 168.768644 168.768644 0 0 1 0.713579 67.556971 166.38034 166.38034 0 0 1-9.407589 31.499403 167.210422 167.210422 0 0 1-153.230104 103.905796l-36.086694 0.378634a29.125661 29.125661 0 0 0 0.291257 58.251323h0.320382l36.086694-0.378634a226.626771 226.626771 0 0 0 45.406906-5.067865 224.981171 224.981171 0 0 0 80.401388-34.834291 226.131634 226.131634 0 0 0 92.459412-233.587804z" fill="#333333" p-id="976"></path><path d="M512.334945 605.857444m-45.931168 0a45.931168 45.931168 0 1 0 91.862336 0 45.931168 45.931168 0 1 0-91.862336 0Z" fill="#69BBFF" p-id="977"></path><path d="M512.334945 791.897605m-45.931168 0a45.931168 45.931168 0 1 0 91.862336 0 45.931168 45.931168 0 1 0-91.862336 0Z" fill="#69BBFF" p-id="978"></path><path d="M325.843336 697.734342m-45.931168 0a45.931168 45.931168 0 1 0 91.862336 0 45.931168 45.931168 0 1 0-91.862336 0Z" fill="#69BBFF" p-id="979"></path><path d="M698.724615 697.734342m-45.931168 0a45.931168 45.931168 0 1 0 91.862335 0 45.931168 45.931168 0 1 0-91.862335 0Z" fill="#69BBFF" p-id="980"></path><path d="M325.843336 884.968656m-45.931168 0a45.931168 45.931168 0 1 0 91.862336 0 45.931168 45.931168 0 1 0-91.862336 0Z" fill="#69BBFF" p-id="981"></path><path d="M698.724615 884.968656m-45.931168 0a45.931168 45.931168 0 1 0 91.862335 0 45.931168 45.931168 0 1 0-91.862335 0Z" fill="#69BBFF" p-id="982"></path><path d="M512.334945 978.054269m-45.931168 0a45.931168 45.931168 0 1 0 91.862336 0 45.931168 45.931168 0 1 0-91.862336 0Z" fill="#69BBFF" p-id="983"></path></svg>