<?xml version="1.0" standalone="no"?><!DOCTYPE svg PUBLIC "-//W3C//DTD SVG 1.1//EN" "http://www.w3.org/Graphics/SVG/1.1/DTD/svg11.dtd"><svg t="1645713691613" class="icon" viewBox="0 0 1332 1024" version="1.1" xmlns="http://www.w3.org/2000/svg" p-id="1292" xmlns:xlink="http://www.w3.org/1999/xlink" width="166.5" height="128"><defs><style type="text/css"></style></defs><path d="M1183.187157 158.514873v-1.120472a157.410408 157.410408 0 0 0-314.804808 0v1.104466a152.96053 152.96053 0 0 0-150.559517 152.928516 152.976537 152.976537 0 0 0 152.976536 152.976537H1179.37755a152.96053 152.96053 0 0 0 152.96053-152.976537 152.96053 152.96053 0 0 0-149.150923-152.91251z" fill="#E3E2E4" p-id="1293"></path><path d="M1226.197302 568.543854a248.104669 248.104669 0 0 0-68.941085-124.756631 251.498101 251.498101 0 0 0-37.023619-29.884608 246.96819 246.96819 0 0 0-139.162709-40.91326l-16.390915 0.160067-1.600675-7.123005a324.424867 324.424867 0 0 0-18.984009-61.065762 326.537758 326.537758 0 0 0-235.203227-192.881372 331.195723 331.195723 0 0 0-131.607522 0 325.145171 325.145171 0 0 0-116.849295 49.172745 326.537758 326.537758 0 0 0-137.38596 205.078518c-0.704297 3.425445-1.344567 6.85089-1.92081 10.308349-7.539181-2.304972-15.190408-4.273803-22.905664-5.842465a251.498101 251.498101 0 0 0-99.978178 0 248.104669 248.104669 0 0 0-125.508949 67.660544 249.897425 249.897425 0 0 0-30.284776 36.703484 247.384365 247.384365 0 0 0-37.359762 88.789458 250.329608 250.329608 0 0 0 0 99.978179 246.96819 246.96819 0 0 0 37.359762 88.805464 248.808966 248.808966 0 0 0 109.182061 89.893924 247.000203 247.000203 0 0 0 46.627671 14.406078 32.013506 32.013506 0 0 0 12.805402-62.730464 183.133259 183.133259 0 0 1-34.526566-10.708518 184.685914 184.685914 0 0 1-98.025354-98.041361 182.028793 182.028793 0 0 1-10.724525-34.526566 186.126522 186.126522 0 0 1 0-74.303347 183.165273 183.165273 0 0 1 27.691683-65.787754 184.541854 184.541854 0 0 1 81.058196-66.764166 183.18128 183.18128 0 0 1 34.526566-10.724525 187.279008 187.279008 0 0 1 74.303347 0 182.300908 182.300908 0 0 1 33.181998 10.180295l1.344568 0.54423a183.91759 183.91759 0 0 1 31.261188 16.967158c1.136479 0.768324 2.272959 1.600675 3.393432 2.352992a185.390211 185.390211 0 0 1 46.419583 47.444016 32.013506 32.013506 0 0 0 53.046379-35.855126 249.449236 249.449236 0 0 0-66.988261-66.988261c-1.696716-1.152486-3.425445-2.288966-5.154174-3.393432a256.988417 256.988417 0 0 1 3.905647-25.610804 261.342254 261.342254 0 0 1 39.504666-93.863599 264.31951 264.31951 0 0 1 70.989949-70.989949 260.910071 260.910071 0 0 1 93.863599-39.504666 266.496428 266.496428 0 0 1 105.948697 0 262.510747 262.510747 0 0 1 204.3262 204.438247l1.168493 5.234209 9.17187 40.801213a15.446516 15.446516 0 0 0 14.822253 12.181139h0.336142l35.98318-0.208088 16.230847-0.176074h3.617526a186.174542 186.174542 0 0 1 37.167681 3.345411 183.885577 183.885577 0 0 1 144.685039 141.72379 185.502259 185.502259 0 0 1 0.78433 74.255326 182.877151 182.877151 0 0 1-10.340362 34.590593 183.789536 183.789536 0 0 1-168.423053 114.208182l-39.664734 0.416175a32.013506 32.013506 0 0 0 0.320135 64.027012h0.352149l39.664733-0.416176a249.097088 249.097088 0 0 0 49.909056-5.57035 247.288325 247.288325 0 0 0 88.373282-38.208119 248.552858 248.552858 0 0 0 101.626874-256.748316z" fill="#333333" p-id="1294"></path><path d="M704.137058 717.054507c-2.320979 0-4.657965-0.080034-7.042971-0.272114-35.422944-2.833195-54.070811-25.178622-69.069139-43.122193l-0.144061-0.176074a24.618386 24.618386 0 0 0-37.775936 0l-1.600676 1.87279c-15.382489 18.471793-34.526566 41.45749-70.173604 41.617558h-0.224095c-34.814687 0-53.398528-21.929251-68.332828-39.552687-3.201351-3.761587-7.667235-9.043815-12.261172-13.669767a24.586372 24.586372 0 0 0-30.700952-3.361418c-10.324356 6.610789-25.514764 19.800353-45.539212 46.067435-7.363106 9.604052-24.570366 13.317618-38.416207 8.211464s-19.208103-17.079205-11.812984-26.71527c25.466744-33.502134 65.403592-77.504697 118.225877-73.55103 35.518985 2.657121 54.42296 24.970534 69.613368 42.898098l0.736311 0.864365a24.602379 24.602379 0 0 0 37.599862 0l2.128898-2.545074c15.334469-18.423773 34.446532-41.361449 69.99753-41.361449 34.830694 0 53.19044 21.961265 67.93266 39.616713 6.75485 8.003376 19.320151 23.129758 26.363121 23.689994 0.240101 0 21.0969 0.992419 62.746472-52.822284 7.427133-9.604052 24.666406-13.237585 38.512247-8.003377s19.032029 17.143232 11.604896 26.763291c-24.810467 31.853438-62.954559 73.551029-112.367405 73.551029zM704.137058 1024c-2.320979 0-4.657965-0.096041-7.042971-0.288122-35.422944-2.833195-54.070811-25.162615-69.069139-43.106185l-0.144061-0.192081a24.634393 24.634393 0 0 0-37.775936 0l-1.600676 1.888797c-15.382489 18.471793-34.526566 41.441483-70.173604 41.617557h-0.224095c-34.814687 0-53.398528-21.913245-68.332828-39.536679-3.201351-3.777594-7.667235-9.059822-12.261172-13.669767a24.570366 24.570366 0 0 0-30.700952-3.361418c-10.324356 6.610789-25.514764 19.784347-45.539212 46.051428-7.363106 9.604052-24.570366 13.333625-38.416207 8.227471s-19.208103-17.079205-11.812984-26.731278c25.466744-33.47012 65.403592-77.504697 118.225877-73.487002 35.518985 2.641114 54.42296 24.954528 69.613368 42.882091l0.736311 0.880371a24.618386 24.618386 0 0 0 37.599862 0c0.768324-0.896378 1.472621-1.760743 2.128898-2.529067 15.334469-18.423773 34.446532-41.361449 69.99753-41.361449 34.830694 0 53.19044 21.961265 67.93266 39.616713 6.75485 8.003376 19.320151 23.113751 26.363121 23.673988 0.240101 0 21.0969 1.008425 62.746472-52.822285 7.427133-9.604052 24.666406-13.221578 38.512247-8.003376s18.984009 16.871118 11.556876 26.475169c-24.762447 32.013506-62.906539 73.775124-112.319385 73.775124zM806.692323 862.491864c-2.320979 0-4.673972-0.096041-7.042971-0.288122-35.422944-2.833195-54.070811-25.162615-69.069138-43.106185l-0.160068-0.192081a24.618386 24.618386 0 0 0-37.75993 0l-1.600675 1.888797c-15.286449 18.471793-34.494552 41.393463-70.141591 41.537523h-0.224095c-34.830694 0-53.398528-21.913245-68.332828-39.536679-3.201351-3.777594-7.667235-9.059822-12.261172-13.669767a24.570366 24.570366 0 0 0-30.700952-3.361418c-10.324356 6.610789-25.530771 19.784347-45.539212 46.051428-7.363106 9.604052-24.570366 13.333625-38.416207 8.227471s-19.22411-17.063199-11.861004-26.667251c25.482751-33.4221 65.435606-77.424664 118.177856-73.470995 35.534991 2.641114 54.42296 24.954528 69.629375 42.882091l0.736311 0.880371a24.618386 24.618386 0 0 0 37.599862 0c0.768324-0.896378 1.472621-1.760743 2.112892-2.529067 15.350476-18.423773 34.462539-41.361449 70.013537-41.361449 34.830694 0 53.19044 21.961265 67.932659 39.616713 6.75485 8.08341 19.304144 23.113751 26.363122 23.689994 0.240101 0 21.0969 0.992419 62.730464-52.902318 7.44314-9.604052 24.682413-13.221578 38.528254-8.003376s19.032029 17.143232 11.604896 26.76329c-24.778453 31.853438-62.922545 73.551029-112.319385 73.55103z" fill="#333333" p-id="1295"></path></svg>