<?xml version="1.0" standalone="no"?><!DOCTYPE svg PUBLIC "-//W3C//DTD SVG 1.1//EN" "http://www.w3.org/Graphics/SVG/1.1/DTD/svg11.dtd"><svg t="1645695030039" class="icon" viewBox="0 0 1024 1024" version="1.1" xmlns="http://www.w3.org/2000/svg" p-id="9574" xmlns:xlink="http://www.w3.org/1999/xlink" width="200" height="200"><defs><style type="text/css"></style></defs><path d="M548.0448 206.6432L249.2416 1015.808H983.04L709.2224 264.8064a84.3776 84.3776 0 0 0-49.3568-50.5856L593.92 188.8256a37.0688 37.0688 0 0 0-45.8752 17.8176z" fill="#5CBDFF" p-id="9575"></path><path d="M286.72 557.2608L40.96 1011.712h730.3168L459.1616 488.448a36.2496 36.2496 0 0 0-43.6224-15.1552l-54.0672 20.48a141.5168 141.5168 0 0 0-74.752 63.488z" fill="#47E289" p-id="9576"></path><path d="M225.28 266.24m-102.4 0a102.4 102.4 0 1 0 204.8 0 102.4 102.4 0 1 0-204.8 0Z" fill="#FFFFFF" p-id="9577"></path><path d="M242.688 278.1184m-87.04 0a87.04 87.04 0 1 0 174.08 0 87.04 87.04 0 1 0-174.08 0Z" fill="#F4D240" p-id="9578"></path><path d="M731.5456 331.5712l-22.3232-61.44a84.3776 84.3776 0 0 0-49.3568-50.5856L593.92 194.9696a37.0688 37.0688 0 0 0-46.2848 17.8176l-51.4048 117.1456a341.8112 341.8112 0 0 1 48.128-10.0352c49.3568-5.3248 77.6192 30.1056 132.5056 30.1056a86.4256 86.4256 0 0 0 54.6816-18.432z" fill="#EBEBFF" p-id="9579"></path><path d="M326.0416 624.64c28.0576 0 68.1984 16.384 125.3376-17.8176 25.6-15.36 64.7168 4.3008 83.968 20.48l-76.1856-130.8672a36.2496 36.2496 0 0 0-43.6224-15.1552l-54.0672 20.48A141.5168 141.5168 0 0 0 286.72 565.4528l-55.296 105.2672c29.9008-23.1424 66.3552-46.8992 94.6176-46.08z" fill="#FF457A" p-id="9580"></path><path d="M328.9088 512L111.4112 1006.1824H37.0688L328.9088 512zM569.5488 195.7888l-81.92 320.1024L450.56 460.8l118.9888-265.0112z" fill="#FFFFFF" p-id="9581"></path><path d="M225.28 389.12a122.88 122.88 0 1 0-122.88-122.88 122.88 122.88 0 0 0 122.88 122.88z m0-204.8a81.92 81.92 0 1 1-81.92 81.92 81.92 81.92 0 0 1 81.92-81.92zM1002.2912 996.5568L728.6784 245.76a104.8576 104.8576 0 0 0-61.44-62.8736l-65.536-25.1904A57.344 57.344 0 0 0 529.8176 184.32v2.048l-95.4368 256.4096a56.32 56.32 0 0 0-25.8048 3.072l-54.0672 20.48a161.9968 161.9968 0 0 0-85.1968 73.1136l-245.76 454.4512A20.48 20.48 0 0 0 40.96 1024h942.08a20.48 20.48 0 0 0 19.2512-27.4432zM75.3664 983.04L305.152 558.8992a121.0368 121.0368 0 0 1 63.488-54.4768l54.0672-20.48a15.7696 15.7696 0 0 1 18.8416 6.3488L735.232 983.04z m707.584 0L476.7744 469.6064a56.32 56.32 0 0 0-5.7344-7.7824L566.8864 202.752a16.384 16.384 0 0 1 20.48-7.168l65.536 25.1904a63.8976 63.8976 0 0 1 37.4784 38.5024L953.7536 983.04z" fill="#37348F" p-id="9582"></path><path d="M433.9712 474.9312l256 515.8912h69.0176L433.9712 474.9312zM678.5024 220.16L922.4192 1003.52h66.9696L678.5024 220.16z" fill="#37348F" p-id="9583"></path></svg>