<svg xmlns="http://www.w3.org/2000/svg" width="1328" height="1328"><path fill="#F6C279" d="m964 164 2.523 1.43c1.875 1.111 3.685 2.33 5.477 3.57v2l1.688.75c15.88 8.584 24.235 30.378 29.988 46.547 7.246 20.263 17.595 38.947 28.191 57.597a1162 1162 0 0 1 13.263 24.1l1.41 2.611c.403.755.808 1.51 1.224 2.286 1.272 2.17 2.71 4.112 4.236 6.109a167 167 0 0 1 2.625 4.813c4.978 9.252 10.444 18.225 16.125 27.062 2.46 3.829 4.717 7.712 6.887 11.71 1.617 2.864 3.362 5.632 5.113 8.415 12.958 21.032 22.896 43.788 31.25 67a512 512 0 0 0 2.125 5.313c6.127 15.203 12.045 30.993 15.27 47.093.53 2.586.53 2.586 1.553 4.884 1.114 2.87 1.818 5.656 2.486 8.66l.776 3.47.79 3.58.77 3.42c5.658 25.227 5.658 25.227 6.808 37.088.331 2.74.789 5.293 1.371 7.98 1.401 6.796 1.982 13.673 2.613 20.574l.196 2.096c.429 4.613.84 9.227 1.242 13.842l.231 2.61c.41 4.793.644 9.582.769 14.39.04 1.485.04 1.485.083 3.001.363 15.693-.197 31.176-1.458 46.812l-.191 2.377c-1.203 14.686-2.604 29.338-5.434 43.81q-.616 3.417-1.227 6.836c-3.313 18.046-7.54 35.563-12.773 53.164l-.763 2.566A554 554 0 0 1 1125 777l-1.273 3.938c-2.042 6.265-4.186 12.458-6.704 18.55-1.19 2.921-2.29 5.871-3.398 8.824-2.12 5.534-4.506 10.89-7.031 16.25a354 354 0 0 0-4.102 9.233c-7.707 17.927-16.915 35.214-26.492 52.205h-2l-.285 2.133c-.851 3.414-2.272 5.767-4.152 8.742-.347.55-.693 1.102-1.05 1.67-3.331 5.262-6.791 10.442-10.274 15.605-2.27 3.335-2.27 3.335-4.239 6.85h-2l-.277 1.684c-.923 2.956-2.424 4.905-4.285 7.379l-2.204 2.953L1043 936q-1.91 2.654-3.812 5.313c-3.621 4.987-7.402 9.835-11.244 14.653-2.246 2.827-4.407 5.675-6.464 8.643-2.21 3.134-4.729 5.711-7.48 8.391-1.96 2.193-3.853 4.44-5.75 6.688-6.636 7.795-13.318 15.496-20.637 22.664-1.635 1.67-3.123 3.41-4.613 5.21-2.491 2.97-5.183 5.445-8.191 7.883-3.304 2.84-6.282 6.013-9.317 9.133-15.889 16.22-15.889 16.22-22.492 18.422l-.898 1.82c-1.428 2.824-3.228 4.129-5.727 6.055l-2.695 2.086L931 1055l-2.367 1.852C923.265 1061 923.265 1061 921 1061l-1 3a95 95 0 0 1-6 4.438l-3.836 2.675-2.054 1.42a697 697 0 0 0-6.4 4.51c-23.783 16.92-48.431 32.209-74.71 44.957q-2.055 1.03-4.105 2.063a229 229 0 0 1-9.395 4.437c-3.172 1.425-6.294 2.888-9.375 4.5-4.35 2.201-8.868 3.888-13.43 5.598a297 297 0 0 0-7.515 2.96c-9.597 3.907-19.35 7.184-29.242 10.255l-3.749 1.166c-5.743 1.76-11.443 3.382-17.324 4.601-2.043.426-2.043.426-4.662 1.365-26.151 8.611-54.928 11.334-82.203 14.055l-2.767.297c-11.75 1.1-23.567.9-35.358.89h-3.522c-15.955-.011-31.768-.262-47.652-1.91a468 468 0 0 0-8.123-.75c-6.99-.609-13.96-1.284-20.91-2.25-22.497-3.112-45.13-3.894-67.805-4.738-88.961-3.33-88.961-3.33-119.082-35.383-15.572-17.283-21.989-37.622-27.405-59.69-5.846-23.693-17.897-45.017-32.376-64.466l-1.824-2.566c-4.645-6.534-9.619-12.738-14.784-18.864-2.809-3.383-5.086-6.29-6.392-10.57h-2a84 84 0 0 1-3.375-5.187C250.29 963.97 247.813 960.5 245 957c-1.736-2.448-3.401-4.94-5.062-7.437l-1.315-1.948C232 937.685 232 937.685 232 934h-2l-1.691-3.418c-1.93-3.86-3.934-7.674-5.962-11.481a331 331 0 0 1-15.917-34.523 204 204 0 0 0-2.848-6.785c-6.575-15.27-10.996-31.566-15.02-47.668l-.506-2.008c-1.931-7.705-3.495-15.36-4.611-23.223a81 81 0 0 0-1.437-7.144C173.01 758.804 174.482 714.306 180 675l.438-3.29c3.94-29.31 9.806-58.752 19.562-86.71a3289 3289 0 0 0 1.875-5.652c2.107-6.333 4.313-12.627 6.563-18.91.553-1.57.553-1.57 1.119-3.17 2.483-6.933 5.326-13.6 8.443-20.268a616 616 0 0 0 5.719-13.043c4.911-11.496 10.705-22.396 16.805-33.302a859 859 0 0 0 4.601-8.417c2.149-3.946 4.37-7.803 6.75-11.613l2.063-3.312c.68-1.094 1.36-2.187 2.062-3.313l1.938-3.187c5.124-8.43 10.52-16.653 16.062-24.813.56-.826 1.121-1.653 1.7-2.504 4.593-6.654 9.429-13.135 14.238-19.634l1.757-2.374 1.7-2.29c1.51-2.068 2.961-4.169 4.41-6.28L300 400h2l2-5h2l.813-2.437L308 390l3-1c1.05-1.85 1.05-1.85 2-4 6.51-9.173 13.963-18.142 22-26q3.441-3.402 6.875-6.812l1.777-1.752c3-2.985 5.885-6.013 8.641-9.225 4.467-5.17 9.306-9.955 14.144-14.774l2.737-2.748c4.575-4.568 9.192-9.012 14.124-13.195 1.763-1.547 3.39-3.178 5.014-4.869 3.72-3.788 7.81-7.054 11.942-10.379 2.42-1.98 4.747-4.016 7.058-6.121 4.275-3.847 8.759-7.376 13.302-10.896 2.986-2.32 5.933-4.667 8.812-7.12l1.635-1.393a950 950 0 0 0 4.416-3.818c2.395-1.802 3.715-2.225 6.523-2.898l1-3c2.328-1.684 2.328-1.684 5.25-3.437 3.825-2.311 7.27-4.766 10.75-7.563a421 421 0 0 1 6.813-4.562c4.067-2.679 8.118-5.37 12.093-8.184a234 234 0 0 1 23.866-14.83c3.789-2.052 7.444-4.133 10.978-6.612 5.14-3.563 10.764-6.175 16.377-8.895 2.428-1.189 4.832-2.42 7.24-3.648 16.476-8.364 33.118-16.684 50.828-22.085 2.671-.831 5.241-1.701 7.848-2.696C619.19 168.287 645.449 163.22 671 160l2.7-.355c31.18-3.968 63.188-2.199 94.092 2.886 13.658 2.154 27.413 2.784 41.208 3.469l6.234.34c31.634 1.643 60.803-.156 91.578-7.778C927.295 153.56 945.1 153.162 964 164"/><path fill="#F6C279" d="M971.324 277.613 973 279q1.855 1.13 3.75 2.188L980 283v2l1.625.25c3.248 1.026 5.663 2.716 8.375 4.75v2l2.25.293c3.115.8 4.429 1.834 6.75 4.02 2.292 2.118 4.522 4.09 7 6l2 1.687v2l1.766.781c2.414 1.317 4.051 2.77 5.984 4.719l1.86 1.844C1019 315 1019 315 1019 317h2v2l3 1c1.43 1.672 1.43 1.672 2.875 3.75 1.86 2.596 3.571 4.686 5.875 6.938 2.307 2.37 3.267 4.185 4.25 7.312h2a139 139 0 0 1 5.063 7.25l1.392 2.066c2.138 3.234 3.761 5.846 4.545 9.684h2q1.796 3.226 3.587 6.455 1.314 2.367 2.634 4.73C1085.715 417.659 1094.443 477.023 1095 533l.038 2.842c.56 72.595-21.465 144.05-52.038 209.158l-1.102 2.36c-2.175 4.615-4.491 9.141-6.898 13.64l-1.552 2.91c-8.267 15.399-17.12 30.25-26.883 44.76a580 580 0 0 0-3.932 5.932c-7.988 12.158-16.62 23.794-25.5 35.308a399 399 0 0 0-5.89 7.836l-1.256 1.71a1125 1125 0 0 0-3.28 4.517L965 866h-2l-.75 1.672c-1.492 2.78-3.287 5.11-5.25 7.578l-2.125 2.703L953 880h-2l-.715 1.68c-1.598 2.884-3.604 5.032-5.847 7.445-3.075 3.19-3.075 3.19-5.438 6.875h-2v2h-2l-.623 1.608c-1.95 3.388-4.656 5.935-7.416 8.662l-1.817 1.815q-1.905 1.902-3.818 3.795-2.89 2.867-5.767 5.747c-6.019 6-12.063 11.886-18.559 17.373q-2.538 2.275-5.062 4.563-2.467 2.22-4.938 4.437l-2.121 1.906C880.235 952 880.235 952 878 952l.214-2.025c.792-8.287.94-16.5.916-24.815-.005-2.25 0-4.501.007-6.752q0-2.16-.004-4.318l-.004-3.91c.017-3.203.017-3.203-1.129-6.18a253 253 0 0 1-.312-5.625c-.385-4.874-1.27-8.471-3.438-12.816-1.647-3.373-3.04-6.827-4.437-10.309l-.794-1.935c-1.374-3.414-2.443-6.677-3.019-10.315h-2v-2h-2c-4-6.75-4-6.75-4-9l-1.625-.625c-3.248-1.88-6.295-4.213-8.375-7.375.207-2.133.207-2.133 1-4l2-1c.665-1.574 1.324-3.15 1.965-4.734 1.249-2.734 2.743-5.249 4.285-7.828 3.945-6.65 7.35-13.5 10.75-20.438q1.373-2.72 2.75-5.437c3.963-7.978 6.723-16.031 9.25-24.563h2l-.187-2.062c.24-3.78 1.642-6.492 3.187-9.938 8.221-27.35 12.357-55.48 13-84 .04-1.392.04-1.392.083-2.813.545-20.007-.838-40.282-4.66-59.95-.55-2.909-.913-5.298-.423-8.237 2.375-2.875 2.375-2.875 5-5h2v-2h2l.688-1.75C904 598 904 598 906.313 596.188c2.39-1.946 3.676-3.44 5.375-5.938L914 587h2l1-4h2l1-4h2l.38-1.799c.978-3.47 3.1-6.274 5.058-9.264 5.361-8.371 10.001-17.046 14.518-25.896a540 540 0 0 1 2.677-5.15c1.996-3.85 3.645-7.559 4.93-11.703 1.644-5.152 3.644-8.12 8.375-10.938 7.133-2.648 15.22-3.352 22.375-.625 4.367 2.059 8.941 4.3 12.687 7.375v2l1.813.875C997 525 997 525 1000 527v3l1.82.785c12.052 6.717 19.584 29.567 23.367 42.278 3.122 9.955 8.5 18.805 13.677 27.815C1040 603 1040 603 1041 606c4.4.632 8.58 1.207 13 .563 2.64-2.063 3.169-4.247 3.793-7.473.284-2.87-.11-5.298-.793-8.09l-.562-2.875c-.145-.701-.29-1.402-.438-2.125h-2c-3-5.75-3-5.75-3-8h-2l-.946-2.427a9334 9334 0 0 0-3.534-9.042l-1.519-3.89c-4.23-10.854-8.496-21.098-14.61-31.04C1027 529 1027 529 1027 526h-2v-3l-1.82-.762c-2.477-1.407-3.47-2.707-5.055-5.05-2.7-3.774-5.472-6.346-9.125-9.188l-1.29-1.395c-11.187-10.497-27.867-15.26-42.835-14.86-1.626.066-3.25.158-4.875.255-.124-8.407-.124-8.407.875-12.687 2.449-11.212 3.492-22.225 3.75-33.688l.108-4.263q.105-4.236.188-8.473.071-3.561.166-7.121c.72-27.166-2.223-55.42-9.087-81.768q-2.625-.292-5.25-.562l-2.953-.317c-2.634-.114-4.39-.18-6.797.879-4.373 7.176-1.599 17.478-.562 25.375l.408 3.27c.701 5.759.701 5.759 2.154 11.355.503 4.591.767 9.204 1.063 13.813l.133 2.077c3.53 56.066-4.374 106.779-32.196 156.11l-1.55 2.816L909 561h-2l-.242 1.672c-1.02 3.135-2.761 5.061-4.883 7.578l-2.473 2.941L897 576l-1.871 2.215C885.85 589.035 873.685 603.087 860 608v2c-1.788 1.329-1.788 1.329-4.27 2.82l-2.693 1.621-2.85 1.684-2.814 1.707C840.384 622 840.384 622 837 622v2c-15.331 7.752-15.331 7.752-21.687 10.563-5.237 2.333-10.246 5.03-15.27 7.789C791.463 647 791.463 647 789 647v2c-2.555 1.727-2.555 1.727-5.875 3.625l-3.305 1.914C777 656 777 656 775 656v2c-1.68 1.29-1.68 1.29-3.875 2.625l-2.18 1.352C767 663 767 663 765 663v2l-1.687.688c-2.538 1.304-2.538 1.304-4.938 3.937L756 672h-2l-.75 1.938C752 676 752 676 749.875 676.75L748 677v2a1161 1161 0 0 1-4.074 3.227c-3.413 3.143-6.133 6.886-8.973 10.543L733 695h-2l-.715 1.586c-1.698 3.19-3.766 6.092-5.847 9.039-2.932 4.056-2.932 4.056-5.438 8.375h-2l-.77 2.602c-1.295 3.578-2.95 6.518-4.918 9.773-4.138 7.024-7.42 14.287-10.552 21.804a469 469 0 0 1-2.026 4.762 284 284 0 0 0-5.433 13.66C688.31 780.142 682.416 793.078 676 806h-2l-.516 1.793c-1.508 4.918-3.074 8.28-6.484 12.207a248 248 0 0 0-4 7q-1.122 1.97-2.25 3.938L659 834h-2l-.348 1.766c-.7 2.4-1.634 3.963-3.09 5.984l-1.308 1.86L651 845h-2l-.73 1.598c-1.64 3.102-3.59 5.958-5.582 8.84l-1.147 1.697C638.999 860.82 636.22 863.9 633 867a404 404 0 0 0-4.625 5c-.755.825-1.51 1.65-2.29 2.5-2.159 2.449-2.159 2.449-3.733 5.313L621 882h-2v2h-2l-.687 1.563C613.81 890.21 610.769 894.31 607 898a518 518 0 0 0-6.937 8.379 940 940 0 0 1-12.625 15.183c-5.393 6.344-10.582 12.836-15.754 19.36l-2.371 2.953-2.137 2.68c-2.213 2.487-4.565 4.39-7.176 6.445-1.697 1.85-3.274 3.765-4.863 5.707-11.421 12.256-26.433 23.104-41.45 30.418-3.301 1.64-6.163 3.114-8.687 5.875-.566 3.892-.347 6.219 1.25 9.813 3.502 4.376 7.33 4.562 12.75 5.187v-2l3.625-1.5c4.422-1.96 8.615-4.232 12.813-6.625l1.863-1.057c2.507-1.446 4.643-2.762 6.699-4.818h3l1-3c5.257-4 5.257-4 9-4l.23-1.781c1.032-2.973 2.549-3.894 5.082-5.719 2.486-1.808 4.704-3.517 6.856-5.719C571 972 571 972 573 972l.813-1.75c1.216-2.306 2.49-4.27 4.187-6.25h2l.938-1.875L583 958h2l.781-1.734c1.333-2.477 2.87-4.4 4.719-6.516l1.844-2.14C594 946 594 946 596 946l.688-2.125c1.65-3.616 3.603-5.963 6.312-8.875h2l2-5h2l2-5h2l.75-2.187c1.373-3.09 2.974-5.323 5.25-7.813h2l.75-2.25c1.355-2.98 2.882-4.53 5.25-6.75l2-3h2l.875-1.812C633 899 633 899 635 896h2l.813-2.437L639 891l3-1q1.01-2.496 2-5a91 91 0 0 1 4-4l2-3h2l.875-2.437C654 873 654 873 656 872l1.313-2.25c1.879-3.063 4.154-5.217 6.687-7.75 1.295-2.166 1.295-2.166 2-4h2l.285-1.672c.907-2.952 2.378-5.055 4.153-7.578l1.87-2.703L676 844h2l.313-1.687c.852-2.868 1.878-4.922 3.687-7.313 2.61-.645 2.61-.645 5-1 7.716 11.162 10.57 23.65 12 37l.224 2.048c1.109 10.918.578 21.114-1.193 31.948-.946 5.98-.962 11.011-.031 17.004h2v2c4.567.315 7.136.408 11.313-1.562 7.955-7.216 8.49-21.444 9.015-31.594.708-23.59-2.972-52.47-18.437-71.43l-1.953-2.039c-2.918-3.064-2.918-3.064-3.125-6.25L698 808l.809-2.242c1.658-4.418 3.595-8.627 5.754-12.82 1.97-3.846 3.416-7.633 4.703-11.75.726-2.164 1.59-4.18 2.547-6.25 1.569-3.418 2.92-6.877 4.201-10.412C725.09 739.528 738.16 717.841 757 699l1.875-2.5c2.266-2.666 4.574-4.351 7.45-6.297 1.875-1.278 1.875-1.278 3.987-3.515L772 685h2l1-3c2.398-2.043 2.398-2.043 5.375-4.187l2.96-2.168C786 674 786 674 789 674v-2l5.176-2.05c1.878-.859 1.878-.859 3.219-2.368 2.098-2.068 4.377-3.213 6.98-4.582 2.799-1.48 5.56-2.961 8.27-4.602 2.408-1.43 4.878-2.449 7.464-3.511 2.777-1.302 5.268-2.984 7.801-4.703C830 649 830 649 832.617 648.199c4.816-1.707 9.039-4.26 13.446-6.824l2.814-1.616c4.13-2.384 8.23-4.794 12.248-7.364l1.793-1.145a412 412 0 0 0 4.586-3.02c2.877-1.418 3.562-1.148 6.496-.23 3.002 12.346 3.436 24.216 3.336 36.879a992 992 0 0 0-.014 9.463c-.024 18.93-.957 37.76-5.072 56.283l-.79 3.676c-3.067 13.938-6.423 27.893-12.257 40.965-1.3 2.955-2.406 5.952-3.515 8.984-3.84 10.065-8.63 19.957-14.547 28.973-1.287 2.005-2.434 4.062-3.578 6.152-4.27 7.753-8.846 15.176-13.977 22.39A217 217 0 0 0 820 847c-2.283 3.424-4.644 6.788-7.008 10.156q-3.288 4.695-6.554 9.407l-1.156 1.66a335 335 0 0 0-8.09 12.265L796 882h-2l-.36 1.802c-1.015 3.486-3.4 6.035-5.64 8.823-3.298 3.99-3.298 3.99-6 8.375h-2l-1 4h-2l-.79 2.227c-1.234 2.827-2.627 4.779-4.585 7.148-2.173 2.708-4.143 5.33-5.812 8.375C764 926 764 926 762.125 928.25c-3.287 4.253-5.606 9.014-8.125 13.75a895 895 0 0 1-2.375 4.25l-1.223 2.219a453 453 0 0 1-3.21 5.687c-5.48 9.74-9.433 19.846-13.255 30.332a287 287 0 0 1-2.945 7.512c-1.672 4.142-3.197 8.32-4.68 12.534a413 413 0 0 1-10.437 26.654l-1.198 2.783A308 308 0 0 1 711 1042l-1.416 3.01c-3.698 7.37-3.698 7.37-7.545 10.06l-3.414 1.055-2.024.649q-2.376.74-4.77 1.419c-3.258.929-6.491 1.926-9.73 2.92C648.068 1071.384 612.59 1078.107 577 1079l-2.744.083c-45.93 1.23-110.04-4.669-146.256-37.083l-2.59-2.273c-9.146-8.515-14.144-18.83-14.746-31.399-.509-28.26 9.028-53.862 20.899-79.14l1.14-2.429c2.239-4.707 4.633-9.277 7.297-13.759l1.341-2.272q2.258-3.807 4.534-7.603l1.527-2.566c2.557-4.27 5.16-8.509 7.856-12.692l1.45-2.254L458 884h2v-3h2l.723-2.121c1.504-3.391 3.452-6.003 5.714-8.942l2.372-3.097L473 864l1.66-2.371L476 860h2l.688-1.625c1.41-2.551 3.127-4.66 5.023-6.867 1.133-1.326 2.216-2.695 3.289-4.07 2.18-2.657 4.572-5.01 7-7.438l2-3h2l.688-1.687c1.688-2.975 3.779-5.033 6.312-7.313h2l.718-1.704c1.576-2.822 3.498-4.754 5.79-7.034l2.742-2.737 1.434-1.414a991 991 0 0 0 4.246-4.226c13.901-13.813 13.901-13.813 18.225-15.95 2.413-1.223 2.775-2.498 3.845-4.935 2.812-3.842 6.07-7.147 9.695-10.223 4.374-3.787 8.477-7.8 12.555-11.902l2.102-2.09c3.445-3.452 6.666-6.916 9.648-10.785a283 283 0 0 1 5-5l2.5-2.5q2.437-2.438 4.938-4.812c2.729-2.863 4.965-5.88 7.23-9.114L599 732h2l2-5h2l2-5h2l1-4h2l.75-2.125c1.422-3.27 3.122-6.016 5.25-8.875h2l.352-1.759c.693-2.398 1.632-4.03 3.011-6.104l1.44-2.19 1.51-2.26c3.409-5.143 6.695-10.29 9.687-15.687l1.21-2.145c6.11-10.84 11.787-21.77 16.963-33.084 1.128-2.415 2.35-4.78 3.577-7.146 2.122-4.18 3.738-8.455 5.258-12.887.964-2.66 2.061-5.24 3.19-7.835 1.436-3.406 2.705-6.875 3.99-10.34l.826-2.217L673 598h2l.313-3.062c.589-3.375 1.486-5.932 2.86-9.031 1.384-3.19 2.562-6.457 3.764-9.72a558 558 0 0 1 5.868-15.21c1.156-2.88 2.298-5.764 3.439-8.65C705.988 515.095 722.1 477.817 742 443h2l.195-1.969c1.143-4.306 3.373-7.747 5.68-11.531l1.355-2.262q1.297-2.16 2.609-4.312a175 175 0 0 0 2.856-4.957L758 416h2l.381-1.792c.984-3.512 3.048-6.41 4.994-9.458l1.328-2.098A691 691 0 0 1 777 387l1.42-2.122c1.14-1.664 2.354-3.277 3.58-4.878h2l.25-1.687c.977-3.013 2.724-4.907 4.75-7.313l1-2h2l1-4h2l.754-2.219c1.356-3.027 2.913-4.879 5.183-7.281 2.836-3.01 4.964-5.943 7.063-9.5a283 283 0 0 1 5-5l2-3h2l.75-1.687c1.489-2.755 3.134-5.005 5.25-7.313h3v-2h2l.574-2.094c1.98-4.037 4.902-6.456 8.239-9.406q1.854-1.67 3.707-3.344l1.797-1.616c3.21-2.937 6.22-6.043 9.183-9.228 2.496-2.308 4.39-3.103 7.5-4.312l1-3 4-2 2.184-2.27c3.155-3.058 6.398-5.258 10.129-7.543l2.116-1.3c28.807-17.441 63.18-23.9 92.895-3.274"/><path fill="#A36631" d="m964 164 2.523 1.43c1.875 1.111 3.685 2.33 5.477 3.57v2l1.688.75c15.88 8.584 24.235 30.378 29.988 46.547 7.246 20.263 17.595 38.947 28.191 57.597a1162 1162 0 0 1 13.263 24.1l1.41 2.611c.403.755.808 1.51 1.224 2.286 1.272 2.17 2.71 4.112 4.236 6.109a167 167 0 0 1 2.625 4.813c4.978 9.252 10.444 18.225 16.125 27.062 2.46 3.829 4.717 7.712 6.887 11.71 1.617 2.864 3.362 5.632 5.113 8.415 12.958 21.032 22.896 43.788 31.25 67a512 512 0 0 0 2.125 5.313c6.127 15.203 12.045 30.993 15.27 47.093.53 2.586.53 2.586 1.553 4.884 1.114 2.87 1.818 5.656 2.486 8.66l.776 3.47.79 3.58.77 3.42c5.658 25.227 5.658 25.227 6.808 37.088.331 2.74.789 5.293 1.371 7.98 1.401 6.796 1.982 13.673 2.613 20.574l.196 2.096c.429 4.613.84 9.227 1.242 13.842l.231 2.61c.41 4.793.644 9.582.769 14.39.04 1.485.04 1.485.083 3.001.363 15.693-.197 31.176-1.458 46.812l-.191 2.377c-1.203 14.686-2.604 29.338-5.434 43.81q-.616 3.417-1.227 6.836c-3.313 18.046-7.54 35.563-12.773 53.164l-.763 2.566A554 554 0 0 1 1125 777l-1.273 3.938c-2.042 6.265-4.186 12.458-6.704 18.55-1.19 2.921-2.29 5.871-3.398 8.824-2.12 5.534-4.506 10.89-7.031 16.25a354 354 0 0 0-4.102 9.233c-7.707 17.927-16.915 35.214-26.492 52.205h-2l-.285 2.133c-.851 3.414-2.272 5.767-4.152 8.742-.347.55-.693 1.102-1.05 1.67-3.331 5.262-6.791 10.442-10.274 15.605-2.27 3.335-2.27 3.335-4.239 6.85h-2l-.277 1.684c-.923 2.956-2.424 4.905-4.285 7.379l-2.204 2.953L1043 936q-1.91 2.654-3.812 5.313c-3.621 4.987-7.402 9.835-11.244 14.653-2.246 2.827-4.407 5.675-6.464 8.643-2.21 3.134-4.729 5.711-7.48 8.391-1.96 2.193-3.853 4.44-5.75 6.688-6.636 7.795-13.318 15.496-20.637 22.664-1.635 1.67-3.123 3.41-4.613 5.21-2.491 2.97-5.183 5.445-8.191 7.883-3.304 2.84-6.282 6.013-9.317 9.133-15.889 16.22-15.889 16.22-22.492 18.422l-.898 1.82c-1.428 2.824-3.228 4.129-5.727 6.055l-2.695 2.086L931 1055l-2.367 1.852C923.265 1061 923.265 1061 921 1061l-1 3a95 95 0 0 1-6 4.438l-3.836 2.675-2.054 1.42a697 697 0 0 0-6.4 4.51c-23.783 16.92-48.431 32.209-74.71 44.957q-2.055 1.03-4.105 2.063a229 229 0 0 1-9.395 4.437c-3.172 1.425-6.294 2.888-9.375 4.5-4.35 2.201-8.868 3.888-13.43 5.598a297 297 0 0 0-7.515 2.96c-9.597 3.907-19.35 7.184-29.242 10.255l-3.749 1.166c-5.743 1.76-11.443 3.382-17.324 4.601-2.043.426-2.043.426-4.662 1.365-26.151 8.611-54.928 11.334-82.203 14.055l-2.767.297c-11.75 1.1-23.567.9-35.358.89h-3.522c-15.955-.011-31.768-.262-47.652-1.91a468 468 0 0 0-8.123-.75c-6.99-.609-13.96-1.284-20.91-2.25-22.497-3.112-45.13-3.894-67.805-4.738-88.961-3.33-88.961-3.33-119.082-35.383-15.572-17.283-21.989-37.622-27.405-59.69-5.846-23.693-17.897-45.017-32.376-64.466l-1.824-2.566c-4.645-6.534-9.619-12.738-14.784-18.864-2.809-3.383-5.086-6.29-6.392-10.57h-2a84 84 0 0 1-3.375-5.187C250.29 963.97 247.813 960.5 245 957c-1.736-2.448-3.401-4.94-5.062-7.437l-1.315-1.948C232 937.685 232 937.685 232 934h-2l-1.691-3.418c-1.93-3.86-3.934-7.674-5.962-11.481a331 331 0 0 1-15.917-34.523 204 204 0 0 0-2.848-6.785c-6.575-15.27-10.996-31.566-15.02-47.668l-.506-2.008c-1.931-7.705-3.495-15.36-4.611-23.223a81 81 0 0 0-1.437-7.144C173.01 758.804 174.482 714.306 180 675l.438-3.29c3.94-29.31 9.806-58.752 19.562-86.71a3289 3289 0 0 0 1.875-5.652c2.107-6.333 4.313-12.627 6.563-18.91.553-1.57.553-1.57 1.119-3.17 2.483-6.933 5.326-13.6 8.443-20.268a616 616 0 0 0 5.719-13.043c4.911-11.496 10.705-22.396 16.805-33.302a859 859 0 0 0 4.601-8.417c2.149-3.946 4.37-7.803 6.75-11.613l2.063-3.312c.68-1.094 1.36-2.187 2.062-3.313l1.938-3.187c5.124-8.43 10.52-16.653 16.062-24.813.56-.826 1.121-1.653 1.7-2.504 4.593-6.654 9.429-13.135 14.238-19.634l1.757-2.374 1.7-2.29c1.51-2.068 2.961-4.169 4.41-6.28L300 400h2l2-5h2l.813-2.437L308 390l3-1c1.05-1.85 1.05-1.85 2-4 6.51-9.173 13.963-18.142 22-26q3.441-3.402 6.875-6.812l1.777-1.752c3-2.985 5.885-6.013 8.641-9.225 4.467-5.17 9.306-9.955 14.144-14.774l2.737-2.748c4.575-4.568 9.192-9.012 14.124-13.195 1.763-1.547 3.39-3.178 5.014-4.869 3.72-3.788 7.81-7.054 11.942-10.379 2.42-1.98 4.747-4.016 7.058-6.121 4.275-3.847 8.759-7.376 13.302-10.896 2.986-2.32 5.933-4.667 8.812-7.12l1.635-1.393a950 950 0 0 0 4.416-3.818c2.395-1.802 3.715-2.225 6.523-2.898l1-3c2.328-1.684 2.328-1.684 5.25-3.437 3.825-2.311 7.27-4.766 10.75-7.563a421 421 0 0 1 6.813-4.562c4.067-2.679 8.118-5.37 12.093-8.184a234 234 0 0 1 23.866-14.83c3.789-2.052 7.444-4.133 10.978-6.612 5.14-3.563 10.764-6.175 16.377-8.895 2.428-1.189 4.832-2.42 7.24-3.648 16.476-8.364 33.118-16.684 50.828-22.085 2.671-.831 5.241-1.701 7.848-2.696C619.19 168.287 645.449 163.22 671 160l2.7-.355c31.18-3.968 63.188-2.199 94.092 2.886 13.658 2.154 27.413 2.784 41.208 3.469l6.234.34c31.634 1.643 60.803-.156 91.578-7.778C927.295 153.56 945.1 153.162 964 164m-316 23-3.56.76a364 364 0 0 0-52.221 15.416c-1.586.589-3.19 1.134-4.801 1.648-14.764 5.08-28.942 11.648-42.617 19.145-2.137 1.17-4.147 2.168-6.418 3.066-3.182 1.288-5.922 3.069-8.82 4.903A137 137 0 0 1 517 239a424 424 0 0 0-7.375 4.188l-1.941 1.115Q505.34 245.649 503 247v2l-1.774.37c-2.26.64-3.854 1.46-5.835 2.704l-2.024 1.264-2.117 1.35-2.19 1.384c-4.115 2.622-8.118 5.311-11.962 8.319-2.87 2.202-5.832 4.272-8.786 6.359a424 424 0 0 0-16.225 12.114c-3.894 3.04-3.894 3.04-6.087 4.136v2l-2.086.652c-3.768 1.743-6.461 4.162-9.539 6.91q-1.874 1.643-3.75 3.282l-1.863 1.633c-2.415 2.088-4.897 4.088-7.387 6.086-5.058 4.104-9.838 8.46-14.61 12.89a220 220 0 0 1-6.702 5.922c-4.397 3.795-8.437 7.947-12.496 12.095-2.247 2.282-4.376 4.389-6.958 6.296L379 346v2h-2c-1.296 1.282-1.296 1.282-2.687 3.063-3.714 4.385-7.73 8.401-11.813 12.437-5.049 5.004-9.94 10.042-14.5 15.5l-1.742 1.96-1.695 1.915-1.497 1.68c-1.264 1.414-1.264 1.414-1.066 3.445l-3 1c-2.41 2.635-2.41 2.635-3 6l-3 1a117 117 0 0 0-5 6.188l-2.969 3.859-1.527 1.998a569 569 0 0 1-5.649 7.185c-5.351 6.741-10.484 13.627-15.543 20.59-1.335 1.837-2.697 3.656-4.125 5.422-1.467 1.819-1.467 1.819-1.187 4.758h-2a127 127 0 0 0-4.375 6.688c-2.674 4.327-5.436 8.339-8.625 12.312q-1.371 2.31-2.625 4.688c-1.337 2.533-2.337 4.274-4.375 6.312v4l-3 1c-2.466 3.379-3 4.706-3 9h-2l-.805 1.68-1.07 2.195-1.055 2.18C263 498 263 498 261 500a203 203 0 0 0-2.206 5.098c-1.216 2.912-2.6 5.737-3.974 8.578l-.893 1.848q-.93 1.923-1.86 3.845a4491 4491 0 0 0-2.797 5.785c-2.62 5.42-5.253 10.83-7.989 16.194-2.257 4.493-4.133 9.074-5.906 13.777l-.867 2.262q-.858 2.24-1.705 4.486a810 810 0 0 1-2.198 5.736c-2.41 6.439-4.506 12.99-6.667 19.516l-1.354 4.074q-1.244 3.746-2.487 7.493-1.088 3.28-2.186 6.557c-9.382 28.32-13.84 58.721-16.316 88.358l-.2 2.393-.161 2.063C201 700 201 700 200.497 701.82c-.545 2.39-.652 4.552-.69 7.004l-.048 2.917-.032 3.161-.038 3.312c-.233 25.347.477 49.847 4.96 74.813.573 3.22 1.11 6.445 1.656 9.668C209.11 818.83 212.59 834.523 218 850q.69 2.156 1.375 4.313c1.811 5.444 4 10.744 6.156 16.058a616 616 0 0 1 3.406 8.629c4.941 12.322 11.075 24.164 17.063 36h2l.285 2.117c.855 3.447 2.321 5.97 4.153 9.008l1.87 3.133A193 193 0 0 0 258 935h2l.344 1.754c.72 2.464 1.699 4.075 3.156 6.183l1.61 2.336L267 948q1.165 1.737 2.328 3.477l2.422 3.586 1.178 1.77c.973 1.426 2.017 2.802 3.072 4.167h2c.26.736.52 1.472.79 2.23 1.24 2.838 2.597 4.722 4.585 7.082 24.985 30.593 45.117 63.435 54.205 102.214 5.344 22.585 15.634 40.705 35.42 53.474 22.649 13.45 48.29 15.19 74.08 15.852 18.725.496 37.38 1.445 56.045 3.023l3.047.257c13.594 1.162 27.173 2.469 40.752 3.792 15.025 1.464 29.972 2.843 45.076 3.076l3.678.078c28.99.59 57.688-1.389 86.322-6.078v-1l-3.268-.028c-80.829-.817-177.7-13.385-243.732-63.972q-2-1.47-4.004-2.934c-7.305-5.364-14.398-10.834-20.996-17.066-2.248 2.052-3.002 3.007-4 6l-2 2a68 68 0 0 0-1.91 3.59l-1.06 2.127-1.092 2.22-1.104 2.21c-1.459 2.941-2.793 5.731-3.834 8.853q-2.906.252-5.812.5l-3.27.281C383 1089 383 1089 380 1089c-3.563-10.688 8.675-31.143 13-41l1.138-2.14c1.225-2.643.686-4.102-.138-6.86a163 163 0 0 0-2.375-5.437c-2.886-6.717-4.318-13.381-5.625-20.563-3.78-.988-7.241-.991-11.129-.832-14.354.511-25.173-3.75-36.871-12.168l-2.258-1.617C329.086 993.396 323.041 987.7 317 982l-2.227-2.098C309.365 974.656 304.666 968.907 300 963l-2.477-3.102C291.478 952.25 286.096 944.307 281 936l-1.203-1.936A266 266 0 0 1 256 885c-.61-1.506-.61-1.506-1.23-3.043-12.922-32.006-16.988-66.7-17.02-100.957l-.004-2.57c.015-45.191.015-45.191 8.254-53.43 4.831-1.146 7.635-1.578 12 .938l3 2.062c.181 6.169-.184 12.035-1.068 18.138-4.993 35.268-3.678 73.665 7.396 107.717.774 2.472 1.463 4.96 2.145 7.457 4.026 14.733 9.52 28.023 16.469 41.595q1.123 2.222 2.206 4.464c2.966 6.091 6.316 11.807 9.977 17.504l1.59 2.508c3.417 5.47 3.417 5.47 7.285 10.617h2l.262 1.691c.958 2.997 2.544 4.83 4.55 7.246l2.083 2.528L318 952l2.137 2.816L322 957h2l3 6h2v2h2l1 3h2v2c1.353 1.41 1.353 1.41 3.125 2.813l1.957 1.617L341 976l2.813 2.438C353.277 986.2 363.376 992.796 376 993c4.488-.842 7.832-1.825 11.098-5.11 2.303-3.5 3.446-7.03 4.59-11.015q.779-2.562 1.562-5.121l.848-2.796c15.236-49.938 40.51-94.37 75.107-133.43 2.193-2.503 3.73-4.335 4.795-7.528h2v-2h2c1.67-1.652 1.67-1.652 3.375-3.75 1.963-2.319 3.884-4.502 6.063-6.625 1.793-1.49 1.793-1.49 1.562-3.625h2a207 207 0 0 0 4-5 283 283 0 0 1 5-5l2.258-2.285a268 268 0 0 1 7.398-7.016c8.435-7.75 16.533-15.819 24.578-23.97 4.55-4.593 9.12-9.054 14.076-13.209 2.363-2.125 4.316-4.525 6.33-6.973C556 747 556 747 558.439 745.062c2.923-2.353 5.192-4.961 7.625-7.808 2.022-2.353 4.098-4.648 6.187-6.942 29.952-33.296 53.012-71.16 69.72-112.754 1.13-2.804 2.28-5.6 3.432-8.394 5.446-13.237 10.731-26.533 15.973-39.851 27.998-71.1 27.998-71.1 40.538-95.19 1.29-2.52 2.537-5.06 3.782-7.603C712.636 452.38 720.08 438.614 728 425l1.694-2.917C736.21 410.885 742.854 399.808 750 389l1.222-1.861c4.671-7.117 9.406-14.167 14.47-21.014a742 742 0 0 0 5.46-7.5c6.599-9.124 13.422-17.862 20.903-26.277 2.568-2.89 4.987-5.874 7.383-8.91 4.296-5.343 9.106-10.098 14.042-14.844 1.541-1.497 3.035-3.042 4.52-4.594v-2h2v-2l1.766-.77c2.476-1.363 4.04-2.872 5.984-4.918C840.346 281.44 854.876 270.698 870 261c-4.033-1.344-6.75-.118-10.625 1.188l-2.33.773c-10.673 3.732-20.728 8.955-30.809 14.033C824 278 824 278 822 278v2l-2.059.742c-3.521 1.506-6.74 3.396-10.004 5.383l-1.997 1.209C793.865 295.913 780.672 305.47 768 316a4397 4397 0 0 1-5.875 4.813l-2.617 2.144a280 280 0 0 1-5.016 3.992c-2.684 2.209-5.059 4.568-7.492 7.051a2092 2092 0 0 1-3.89 3.82c-7.072 6.967-14.046 13.845-20.153 21.688a143 143 0 0 1-4.777 5.742c-14.044 16.298-25.826 34.801-36.057 53.686a689 689 0 0 1-3.447 6.236C665.962 448.312 656.392 473.017 648 498l-1.058 3.137c-4.039 12.064-7.765 24.214-11.383 36.41-20.22 68.146-20.22 68.146-34.315 99.663a610 610 0 0 0-3.506 8.048C587.755 668.324 575.025 696.073 557 714l-1.875 2.813c-1.556 2.333-3.056 4.336-4.875 6.437-2.461 2.416-2.461 2.416-2.25 4.75l-1.793.758c-2.5 1.407-3.747 2.875-5.52 5.117-4.194 4.92-7.732 7.774-14.375 8.563-5.062-.67-5.062-.67-7.312-3.438-.93-4.436-1.658-8.662 0-13 1.75-1 1.75-1 4-2 2.75-2.417 2.75-2.417 5-5v-2l3-1a264 264 0 0 0 3-5l3-2v-3l3-1c1.472-1.781 1.472-1.781 2.813-4l1.558-2.441L546 696q2.442-3.581 4.898-7.152c1.273-1.776 1.273-1.776 1.102-3.848h2l1.102-2.055c2.996-5.547 6.083-11.004 9.406-16.363 1.612-2.79 3.049-5.634 4.474-8.523a446 446 0 0 1 2.842-5.637c7.604-14.94 14.64-30.125 20.28-45.922 1.091-3.045 2.202-6.083 3.31-9.121 4.338-11.948 8.51-23.867 11.934-36.108 1.659-5.778 3.468-11.513 5.243-17.257 1.393-4.544 2.666-9.071 3.785-13.692 1.558-5.799 3.514-11.49 5.374-17.197l1.369-4.213q1.341-4.124 2.687-8.247 1.446-4.442 2.87-8.892c5.524-17.117 12.109-33.962 19.824-50.21 1.844-3.91 3.677-7.798 5.125-11.875 1.508-4.045 3.383-7.769 5.387-11.586 1.13-2.017 1.13-2.017.988-4.102h2l.918-1.871c2.573-5.2 5.251-10.298 8.164-15.317 1.069-1.77 1.069-1.77.918-3.812h2l1.563-3.375c2.233-4.515 5.064-8.476 8.046-12.523 1.575-1.96 1.575-1.96 1.391-4.102h2a88 88 0 0 0 3.313-5.187c2.577-4.172 5.124-7.428 8.687-10.813 4.795-4.954 4.795-4.954 7-11l3-1 .938-2.437c1.3-3.14 2.13-3.114 5.062-4.563 1.52-1.496 1.52-1.496 2.938-3.312C725.51 325.744 734.053 317.555 743 310q1.713-1.489 3.422-2.98l3.765-3.27 1.803-1.576c3.194-2.756 6.33-5.077 10.01-7.174a101 101 0 0 0 3-3l2-1v-2l2.176-.777c2.995-1.297 5.372-2.872 8.011-4.786 4.664-3.362 4.664-3.362 6.813-4.437v-2l1.938-.687c4.195-1.799 8.101-4.052 12.062-6.313v-2l5-1v-2l2.375-.437c2.59-.441 2.59-.441 4.625-1.563v-2l1.652-.516c13.365-4.295 29.982-11.007 37.606-23.554 1.426-3.707 1.306-7.183.09-10.95-2.3-5.161-5.6-8.893-10.348-11.98h-2l-1-3c-9.098-7.329-21.14-10.884-32.055-14.621-3.137-1.08-6.2-2.274-9.258-3.566-5.414-2.216-10.987-3.545-16.687-4.813l-2.352-.523A296 296 0 0 0 768 186l-3.852-.719c-19.132-3.455-38.41-4.748-57.836-4.781l-2.916-.008c-18.987.011-36.9 2.405-55.396 6.508m228.438 95.125-1.948 1.198c-3.931 2.492-7.456 5.238-10.927 8.34C862 293 862 293 859 295v2l-2.187.688c-3.399 1.585-5.265 3.573-7.813 6.312l-5 5-1.883 1.918c-3.056 3.096-6.05 6.102-9.492 8.77-2.69 2.37-3.652 3.908-4.625 7.312h-2v2l-1.687.125c-3.607 1.365-5.043 3.786-7.313 6.875v2l-3 1a249 249 0 0 0-4 6l-4 4a154 154 0 0 0-2.437 3.438c-1.665 2.41-3.18 4.165-5.313 6.25-2.182 2.243-2.911 3.265-3.25 6.312h-2l-1 4h-2a187 187 0 0 0-4 6l-2 2v3h-2c-1.33 1.686-2.573 3.442-3.773 5.223l-1.107 1.63a753 753 0 0 0-2.314 3.444 932 932 0 0 1-3.51 5.201c-7.125 9.568-7.125 9.568-11.296 20.502h-2c-1.622 2.249-1.622 2.249-3.258 5.145l-1.894 3.24-1.973 3.428-1.996 3.392c-3.588 5.552-3.588 5.552-4.879 11.795h-2c-17 32.664-32.966 65.569-46.875 99.688l-.822 2.01c-3.258 7.99-6.337 16.017-9.174 24.167-2.193 6.089-4.8 12.01-7.332 17.963l-1.11 2.672-.988 2.344c-.905 2.412-.905 2.412-.699 6.156h-2l-.67 1.893q-1.534 4.305-3.08 8.607l-1.055 2.977c-1.836 5.1-3.808 9.964-6.315 14.77-1.27 2.528-2.19 5.15-3.13 7.816-2.387 6.334-5.392 12.116-8.637 18.035-2.518 4.602-4.84 9.298-7.147 14.009-5.331 10.806-11.434 20.794-18.282 30.702l-1.832 2.691-1.662 2.406c-1.437 2.127-1.437 2.127-1.19 5.094h-2c-1.593 1.946-1.593 1.946-3.125 4.375l-1.633 2.46c-1.408 2.038-1.408 2.038-1.242 4.165h-2l-.312 1.938L609 722l-3 1c-.733 2.015-.733 2.015-1 4h-2l-.75 2.375c-1.487 3.123-2.28 3.14-5.25 4.625a249 249 0 0 0-4 6 281 281 0 0 1-5 5 688 688 0 0 0-4 4.563c-2.812 3.195-5.668 5.789-9 8.437a167 167 0 0 0-3.148 3.61c-3.794 4.38-7.807 8.493-11.914 12.577l-2.065 2.077A165 165 0 0 1 546 787c-3.043 3.074-3.043 3.074-4 7l-1.774.8c-2.318 1.25-3.936 2.595-5.843 4.403l-2.07 1.953c-.723.69-1.444 1.382-2.188 2.094l-2.256 2.145a1239 1239 0 0 0-14.932 14.48l-1.821 1.782c-1.412 1.409-2.77 2.871-4.116 4.343v2h-2c-2.513 2.262-4.604 4.208-6.125 7.25L498 837l-3 1-1.875 2.813c-2.121 3.182-4.167 4.836-7.125 7.187a264 264 0 0 0-3 5l-5 5v2l-3 1c-1.381 1.422-1.381 1.422-2.629 3.203l-1.447 1.973-1.486 2.074-1.499 2.027c-2.506 3.453-4.597 6.625-5.939 10.723h-2v3h-2c-1.503 1.888-1.503 1.888-3.012 4.355l-1.786 2.807-1.89 3.025-1.928 3.063A301 301 0 0 0 437 919a653 653 0 0 1-1.98 3.555c-4.305 7.729-7.754 15.474-10.72 23.808a169 169 0 0 1-3.363 8.637c-8.336 20.771-15.248 46.512-7.117 68.355 9.247 20.73 30.118 30.864 50.297 38.649 14.649 5.449 29.556 9.03 44.883 11.996l2.624.511c55.472 10.502 113.85 3.17 167.563-12.636l2.187-.642A550 550 0 0 0 695 1057l3.047-.942c5.085-1.747 8.023-3.335 10.524-8.182l.929-2.063 1.082-2.214c7.045-14.798 12.718-30.26 18.012-45.756 2.075-6.034 4.433-11.86 7.015-17.698 1.312-2.966 2.546-5.953 3.766-8.957 8.606-20.682 8.606-20.682 14.277-29.16 1.894-2.85 3.64-5.788 5.41-8.716A100 100 0 0 1 767 922a65 65 0 0 0 2-3.5c1.259-2.29 2.458-4.066 4.125-6.125 1.889-2.393 2.892-4.507 3.875-7.375h2l1-4h2c1.383-1.784 1.383-1.784 2.75-4.062 2.436-3.811 5.05-7.141 8.148-10.43 1.397-1.6 1.397-1.6 1.102-4.508h2a128 128 0 0 0 4.5-6.625q1.35-2.074 2.707-4.145l1.4-2.139c2.122-3.186 4.342-6.298 6.58-9.404l1.263-1.755 1.234-1.713c9.092-12.634 17.632-25.438 25.113-39.098 1.106-1.95 2.286-3.81 3.515-5.683 5.96-9.44 10.665-19.745 14.485-30.211q1.216-3.26 2.594-6.454c13.993-32.627 17.999-68.393 17.925-103.564-.004-3.17.02-6.338.045-9.508.034-11.599-.614-22.402-3.361-33.701-3.32-1.098-3.762-1.12-7.11.555q-1.83 1.143-3.64 2.32-2 1.254-4.004 2.5l-2.098 1.313c-4.21 2.572-8.544 4.928-12.868 7.304-3.28 1.818-6.295 3.747-9.28 6.008l-2.625.813c-3.133 1.102-5.447 2.38-8.25 4.125-3.684 2.28-7.174 3.953-11.258 5.355-2.544.963-4.8 2.267-7.129 3.664-1.845 1.107-3.726 2.134-5.613 3.168-3.173 1.523-3.173 1.523-4.125 3.875a161 161 0 0 1-7 3v2l-1.64.254c-3.177 1.005-5.426 2.72-8.11 4.683l-2.984 2.153L774 683v2l-2.187.688c-3.399 1.585-5.265 3.573-7.813 6.312-2.54 2.605-5.007 5.006-7.875 7.25-3.368 2.746-5.818 6.049-8.414 9.512-1.457 1.906-2.967 3.66-4.586 5.426-10.96 12.68-18.808 28.708-24.758 44.257a285 285 0 0 1-3.93 9.617c-1.763 4.181-3.293 8.39-4.75 12.688-2.16 6.192-4.877 11.94-7.92 17.745-3.638 6.695-3.638 6.695-4.619 14.107 1.026 2.889 2.417 4.507 4.477 6.773C718.213 839.441 721.861 870.814 720 896c-2.212 20.564-2.212 20.564-8.687 26.438-4.177 1.97-6.746 1.877-11.313 1.562v-2h-2c-1.119-7.147-.611-13.198.5-20.312 2.944-21.134 2.32-47.043-9.812-65.5L687 834c-2.372.038-2.372.038-5 1-3.27 4.028-3.27 4.028-4 9h-2c-2.051 2.367-2.051 2.367-4.125 5.313l-2.195 2.988c-1.944 2.594-1.944 2.594-1.68 5.699l-3 1c-1.005 1.751-2.007 3.505-2.953 5.29-1.32 2.156-2.984 3.287-5.047 4.71l-1 3-4 4v2l-3 1-.875 1.75c-1.497 2.994-3.772 4.897-6.125 7.25v2l-3 1-1 2.5-1 2.5-3 1c-2.41 2.635-2.41 2.635-3 6l-3 1-.875 1.75c-1.497 2.994-3.772 4.897-6.125 7.25v2h-2c-1.588 1.715-1.588 1.715-3.125 3.875l-1.633 2.18c-1.421 1.841-1.421 1.841-1.242 3.945h-2l-2 5h-2l-.812 2.438L605 935l-3 1c-1.669 1.786-1.669 1.786-3.187 3.938l-1.606 2.152c-1.385 1.815-1.385 1.815-1.207 3.91l-1.766.75c-2.565 1.435-4.071 3.027-5.984 5.25l-1.86 2.125c-1.589 1.754-1.589 1.754-1.39 3.875h-2c-2.398 2.637-2.398 2.637-3 6h-2c-3.636 3.48-3.636 3.48-5 8-.577.26-1.155.518-1.75.785-2.423 1.308-4.214 2.804-6.25 4.653-2.037 1.841-3.98 3.548-6.25 5.097L557 984v3l-2.187.25c-3.402.907-5.268 2.35-7.813 4.75v2l-1.61.262c-3.251 1.004-5.774 2.72-8.64 4.55-5.701 3.592-11.324 7.046-17.75 9.188v2c-1.607-.256-3.21-.53-4.812-.812l-2.708-.458c-2.716-.8-3.772-1.505-5.48-3.73-1.256-3.768-1.604-6.04-1-10 3.64-4.213 8.817-6.45 13.75-8.812 6.756-3.255 12.388-7.554 18.25-12.188.758-.565 1.516-1.13 2.297-1.71 4.744-3.55 9.15-7.416 13.515-11.415l1.672-1.525A75 75 0 0 0 563 950l5-5c6.646-7.035 12.642-14.493 18.558-22.137a2420 2420 0 0 1 7.442-9.55l1.384-1.783c2.082-2.663 4.171-5.194 6.616-7.53a311 311 0 0 0 3.398-4.05 616 616 0 0 1 3.891-4.68l2.461-2.957 2.36-2.825c2.044-2.414 2.044-2.414 2.89-5.488h2v-2l3-1a175 175 0 0 0 4-6 293 293 0 0 1 5-6.125l2.563-3.07C636 863 636 863 638.05 860.98c2.315-2.352 4.2-4.871 6.136-7.543l2.106-2.878c1.837-2.511 1.837-2.511 2.707-5.559l3-1c1.443-1.521 1.443-1.521 2.688-3.375l1.324-1.836c1.23-1.886 1.23-1.886.988-4.789h2c1.324-1.808 1.324-1.808 2.625-4.187 1.788-3.1 3.589-6.178 5.512-9.196l1.093-1.726q1.563-2.458 3.133-4.91c1.524-2.776 2.24-4.866 2.637-7.981h2c1.929-3.91 3.84-7.83 5.75-11.75l1.633-3.309c3.077-6.343 5.662-12.625 7.79-19.347.956-3 2.09-5.887 3.327-8.782l1.277-3a820 820 0 0 1 4.274-9.695 283 283 0 0 0 1.804-4.11c2.216-5.127 4.655-10.133 7.145-15.132l1.007-2.028c1.655-3.3 3.372-6.53 5.243-9.714 1.913-2.826 1.913-2.826 1.75-5.133h2c1.386-1.748 1.386-1.748 2.75-4 2.536-3.954 5.242-7.682 8.148-11.371 1.289-1.577 1.289-1.577 1.102-3.629l1.719-.66c3.019-1.773 4.64-4.018 6.781-6.778 2.647-3.404 5.055-6.002 8.5-8.562v-2l2.438-.812L753 675l1-3a88 88 0 0 1 4-2 349 349 0 0 0 5-4l2-1v-2l10-5v-2l2.5-.687c4.165-1.562 8-3.542 11.5-6.313v-2l3.063-.75c4.73-1.358 8.724-3.792 12.804-6.48 4.248-2.773 8.386-4.734 13.125-6.524 6.509-2.696 12.738-6.041 19.008-9.246v-2l1.566-.258c3.405-1.038 6.322-2.824 9.371-4.617l1.842-1.066A966 966 0 0 0 855 613l2.941-1.633L860 610v-2l2.188-.75c3.135-1.394 5.182-3.038 7.812-5.25q2.247-1.722 4.5-3.437c3.423-2.661 6.509-5.415 9.5-8.563q1.717-1.688 3.438-3.375c3.385-3.393 6.501-6.939 9.562-10.625l2.34-2.746 2.472-2.942 2.333-2.761c1.693-2.328 2.454-3.745 2.855-6.551h2l.813-1.477 1.187-2.148 1.39-2.523a230 230 0 0 1 3.407-5.829c27.3-45.754 31.622-99.149 28.265-151.21l-.131-2.053c-.333-7.494-.333-7.494-1.931-14.76-.625-3.86-1.078-7.745-1.562-11.625-.14-1.056-.278-2.111-.42-3.2-2.16-17.169-2.16-17.169.982-22.175 2.207-.645 2.207-.645 4.813-.812l2.582-.208c2.667.02 5.004.465 7.605 1.02 5.593 26.023 9.227 51.85 9.125 78.5l-.006 2.26c-.145 49.293-.145 49.293-5.119 59.24a62 62 0 0 0-.062 4.125L960 492l2.938-.176c14.986-.615 27.28 3.34 40.062 11.176l2.68 1.531c2.797 1.77 4.28 3.873 6.32 6.469l3.063 2.5c2.82 2.4 4.08 4.377 5.937 7.5 2.067 1.328 2.067 1.328 4 2v3h2c.095.53.19 1.06.29 1.605.941 3.173 2.475 5.817 4.085 8.707 3.691 6.637 6.559 13.437 9.324 20.497l.727 1.853 2.262 5.775 1.548 3.952q1.884 4.805 3.764 9.611h2l.938 2.875c.936 2.986.936 2.986 2.062 5.125h2c.353 1.663.68 3.33 1 5l.688 3.375c.357 4.15-.038 6.8-1.688 10.625-3.924 2.943-8.383 1.867-12.988 1.29L1041 606l-.672-1.922c-1.474-3.417-3.258-6.541-5.11-9.765-4.932-8.613-8.812-17.009-11.902-26.422-4.314-13.096-11.46-28.035-21.316-37.891h-2v-3c-3.037-3.05-3.037-3.05-7-4l-1-3c-2.831-1.89-2.831-1.89-6.25-3.625l-3.453-1.852c-7.31-3.377-14.984-3.038-22.68-.843-5.435 2.335-8.184 6.02-10.617 11.32l-.909 2.794c-5.475 16.086-14.235 33.092-24.868 46.436-1.507 1.823-1.507 1.823-1.223 4.77h-2l-1 4h-2l-.25 1.875L916 587l-1.75.813c-2.973 1.569-4.103 3.689-5.945 6.44-1.762 2.36-3.987 3.958-6.305 5.747v2h-2v2l-1.812.813c-2.275 1.234-3.602 2.147-5.188 4.187-.2 2.368-.2 2.368.219 4.977l.36 2.97L894 620l.36 2.843c.364 2.846.751 5.689 1.14 8.532 5.658 42.894 4.668 92.853-11.5 133.625-1.441 3.868-2.243 6.865-2 11h-2l-.77 2.598-1.043 3.465-1.019 3.41c-2.13 6.434-5.052 12.433-8.106 18.465l-1.013 2.013q-1.016 2.018-2.036 4.032a361 361 0 0 0-1.993 4.03c-2.66 5.442-5.724 10.558-8.928 15.694-2.204 3.52-2.204 3.52-3.615 7.396-.593 2.36-1.668 3.324-3.477 4.897 1.59 4.136 4.605 7.232 8 10h2l.875 2.25A82 82 0 0 0 862 861h2v2h2l.324 2.047c.814 3.557 2.108 6.838 3.489 10.203l.81 2.025a134 134 0 0 0 4.69 10.35c2.152 4.67 2.299 9.373 2.511 14.457.058 2.75.058 2.75.679 4.647.7 3.195.627 6.259.63 9.529l.003 2.13q0 2.232-.006 4.464c-.005 2.244 0 4.49.007 6.734.003 7.53-.203 14.93-1.137 22.414 4.117-1.925 7.296-4.644 10.688-7.625l1.993-1.744c11.511-10.142 22.553-20.777 33.443-31.58q2.133-2.114 4.273-4.22c.86-.86 1.72-1.72 2.607-2.604l2.338-2.326c1.877-1.732 1.877-1.732 1.658-3.901h2v-2h2a113 113 0 0 0 4.438-5.312c4.347-5.48 4.347-5.48 6.347-7.418 1.445-1.218 1.445-1.218 1.215-3.27h2a105 105 0 0 0 4.563-5.312l2.44-2.989c2.133-2.592 2.133-2.592 2.997-5.699h2c1.38-1.655 2.677-3.378 3.938-5.125q1.21-1.658 2.425-3.312l1.296-1.766c2.258-3.025 4.616-5.969 6.966-8.922 4.342-5.486 8.428-11.096 12.375-16.875q1.593-2.25 3.188-4.5c58.63-83.962 96.11-181.521 94.178-361.488-6.184-34.003-15.24-67.778-32.366-98.012l-3-5.437q-.997-1.784-2-3.563h-2l-.254-1.621c-1.016-3.239-2.768-5.646-4.684-8.442l-2.152-3.16L1041 341l-2-3h-2l-.687-2.148c-1.599-3.473-3.687-5.706-6.313-8.477-2.582-2.74-4.91-5.24-7-8.375h-2v-2h-2l-.781-1.766c-1.317-2.414-2.77-4.051-4.719-5.984l-1.844-1.86c-1.55-1.604-1.55-1.604-3.656-1.39l-.727-1.777c-1.526-2.665-3.19-3.96-5.648-5.786l-2.336-1.753L997 295l-2.102-1.715c-1.93-1.565-1.93-1.565-4.898-1.285l-1-3c-4.063-3.21-4.063-3.21-9-4v-2q-2.427-1.372-4.855-2.738a74 74 0 0 1-4.133-2.617c-5.764-3.82-11.77-6.188-18.262-8.457l-2.618-.916c-26.77-9.065-50.76-.279-73.694 13.853"/><path fill="#E3A45C" d="M1115 514c2.654 2.654 2.705 4.636 3.402 8.316l.371 1.938c.398 2.1.782 4.204 1.165 6.308l.402 2.187c2.452 13.363 4.377 26.722 5.66 40.251l.312 3.13c8.48 87.716-9.082 178.997-48.312 257.87l-2.55 5.215c-5.476 11.132-11.179 22.08-17.45 32.785l-1.068 1.827c-9.298 15.844-19.059 31.361-29.932 46.173-.675.94-1.35 1.88-2.047 2.848-4.123 5.73-8.374 11.349-12.717 16.914-2.33 2.98-2.33 2.98-4.236 6.238h-2l-.648 1.586c-1.902 3.396-4.411 6.127-6.977 9.039-4.458 5.11-8.74 10.285-12.852 15.68L984 974h-2l-.777 1.773c-1.329 2.42-2.788 3.959-4.785 5.852-2.578 2.42-2.578 2.42-4.438 5.375h-2l-.812 1.813c-1.187 2.185-2.284 3.6-4.188 5.187h-2l-.687 1.688c-1.689 2.974-3.78 5.032-6.313 7.312h-2v2c-1.504 1.48-1.504 1.48-3.562 3.188-2.713 2.3-5.288 4.623-7.75 7.187-3.72 3.788-7.81 7.054-11.942 10.379a175 175 0 0 0-7.058 6.121c-16.205 14.519-34.346 27.457-52.688 39.125l-1.729 1.102C815.244 1106.23 753.77 1123.65 690 1125l-3.24.083c-31.357.71-62.85-1.777-93.76-7.083l-3.714-.636c-72.638-12.716-72.638-12.716-83.286-23.364 4.956.447 9.887.948 14.805 1.719C605.5 1108.937 693.126 1084.659 769 1048l3.252-1.568c13.593-6.586 26.83-13.606 39.748-21.432l2.614-1.583c11.305-6.875 22.486-13.916 33.386-21.417l2.061-1.417c9.333-6.443 18.393-13.142 27.242-20.233a450 450 0 0 1 5.15-4.026c14.177-10.8 14.177-10.8 27.115-22.996C911 952 911 952 913 952v-2c1.398-1.41 1.398-1.41 3.375-3.062l2.242-1.915L921 943c6.305-5.452 12.284-11.181 18.188-17.062l2.015-2.002a226 226 0 0 0 11.084-11.978c2.776-3.173 5.69-6.212 8.588-9.27 4.857-5.166 9.504-10.42 13.93-15.965a288 288 0 0 1 6.122-7.3c6.755-7.852 12.951-16.071 19.073-24.423l1.57-2.129c12.585-17.08 24.504-34.68 35.43-52.871l1.643-2.734C1082.746 723.377 1110.683 639.15 1115 514"/><path fill="#E4A55C" d="m870 261-2.168 1.398c-11.168 7.311-21.534 15.187-31.324 24.278-2.896 2.684-5.87 5.268-8.856 7.851-1.396 1.245-2.721 2.57-4.027 3.91C822 300 822 300 820 300v2h-2l-.621 1.621c-1.94 3.348-4.67 5.789-7.442 8.442a161 161 0 0 0-13.851 15.359c-1.98 2.446-4.056 4.724-6.211 7.015-9.359 10.266-17.36 21.88-25.28 33.27a1067 1067 0 0 1-4.908 6.98c-8.543 12.246-16.5 24.738-24.082 37.6-1.615 2.73-3.248 5.448-4.882 8.166-29.869 50.016-51.733 103.801-72.962 157.881-19.69 50.15-40.24 99.774-76.202 140.705-2.613 3.024-4.992 6.143-7.34 9.371-1.854 2.419-4.04 4.465-6.219 6.59a517 517 0 0 0-3.312 3.875c-3.052 3.537-6.36 6.528-9.918 9.543-1.92 1.629-1.92 1.629-3.77 4.082-1.793 2.241-3.508 3.868-5.681 5.717-3.982 3.447-7.72 7.07-11.417 10.818l-1.933 1.945a4188 4188 0 0 0-6.032 6.082q-3.982 4.023-7.972 8.036l-1.803 1.828a156 156 0 0 1-10.62 9.754c-2.312 1.979-4.419 4.141-6.542 6.32l-2.625 2.563c-2.374 2.32-2.374 2.32-4.062 4.75L491 812h-2l-.746 1.742c-1.452 2.614-3.157 4.321-5.317 6.383-2.853 2.654-2.853 2.654-4.937 5.875h-2v2h-2l-.754 1.727c-1.436 2.619-3.133 4.475-5.183 6.648-35.906 39.284-60.5 87.248-75.66 137.918l-.677 2.247a451 451 0 0 0-1.593 5.526c-1.53 3.963-3.433 6.868-7.07 9.149-7.898 2.767-14.897 1.581-22.497-1.695A182 182 0 0 1 352 985v-3h3v2l3-1 .367-2.309c1.483-9.134 3.03-17.46 6.621-26.004 1.466-3.892 2.381-7.874 3.301-11.925.711-2.762.711-2.762 1.734-5.305.993-2.497 1.494-4.82 1.977-7.457a212 212 0 0 1 5.246-17.656c1.181-3.671 2.088-7.413 3.008-11.157C381 899 381 899 383 898v-6h2l.223-2.324c1.084-5.127 3.13-9.696 5.214-14.489l1.237-2.927 1.197-2.78 1.092-2.534C395 865 395 865 397 864c.91-2.344.91-2.344 1.625-5.062.26-.92.52-1.839.79-2.786L400 854h2l.625-2.375c1.868-4.925 4.598-9.167 7.375-13.625l1.563-2.648C413 833 413 833 415.063 830.438c1.675-2.109 2.85-3.992 3.937-6.438h2l1-4h2l.75-2.187c1.373-3.09 2.974-5.323 5.25-7.813h2v-2h2l.25-1.875c.75-2.125.75-2.125 2.813-3.375L439 802v-2h2v-2a263 263 0 0 1 5-4l1-2h2v-2h2v-2h2v-2c1.645-1.621 1.645-1.621 3.813-3.437 3.012-2.536 3.012-2.536 5.824-5.286C464 776 464 776 466 776v-2a791 791 0 0 1 5-3l2-3h2l1-2 1.938-.875c2.517-1.373 2.935-2.549 4.062-5.125l2-2h3v-2c1.355-1.367 1.355-1.367 3.188-2.875l1.937-1.61a543 543 0 0 1 4.563-3.64c2.35-1.83 2.35-1.83 4.375-4 1.908-1.846 3.574-2.734 5.937-3.875l1-2h2l1-2 5-6 1-2 2 1-.687 3.188c-.346 4.22.103 5.558 2.687 8.812 3.119 1.56 5.545 1.283 9 1 6.066-2.824 10.065-6.512 14.188-11.812L546 728h2l.813-1.75c1.595-3.022 3.65-5.564 5.75-8.25 1.475-1.914 1.475-1.914 2.312-3.937 1.558-2.857 3.825-4.77 6.125-7.063a126 126 0 0 0 4.5-6.375l1.271-1.922c9.46-14.575 17.817-29.991 25.229-45.703l1.158-2.445c17.177-36.477 29.387-74.804 40.641-113.445 24.338-83.458 24.338-83.458 46.861-118.958 1.464-2.35 2.741-4.762 4.028-7.214 7.156-13.199 15.867-25.389 25.02-37.26a529 529 0 0 0 3.288-4.326c3.707-4.88 7.698-9.439 11.832-13.961a244 244 0 0 0 5.422-6.204c7.574-8.686 15.949-16.759 24.75-24.187q1.572-1.365 3.14-2.734c15.253-13.27 31.28-24.663 48.485-35.266l2.298-1.422c3.633-2.215 7.118-4 11.077-5.578l1-2c1.727-.958 1.727-.958 3.98-1.953l2.509-1.119 2.698-1.178 2.746-1.213q2.748-1.212 5.501-2.415 3.333-1.459 6.656-2.942c17.871-7.86 17.871-7.86 22.91-6.18"/><path fill="#F8D5A2" d="m704.875 180.625 2.962.011c16.562.072 32.752 1.037 49.163 3.364l2.912.388a629 629 0 0 1 7.9 1.112l2.21.322c4.96.805 9.304 2.338 13.978 4.178 1.844.453 3.688.905 5.535 1.344 8.808 2.345 17.47 5.25 25.465 9.656-6.568 2.19-13.562-.143-20-2-2-.04-4-.043-6 0l-2.766-.465c-3.318-.549-6.566-.82-9.922-1.035-6.623-.428-6.623-.428-9.693-.75-7.882-.818-15.7-.899-23.619-.875l-3.965-.012-3.785.004-3.422.004c-2.907.004-2.907.004-5.828 1.129-2.483.067-4.947-.002-7.43-.062-2.67.064-4.956.509-7.57 1.062-4.226.672-8.462 1.275-12.695 1.895-4.125.609-8.228 1.222-12.305 2.105l-2.035.43c-15.17 3.332-30.443 7.16-44.942 12.789-2.495.963-5.008 1.871-7.523 2.781l-2.836 1.031a2213 2213 0 0 1-4.828 1.75c-4.31 1.58-8.497 3.36-12.68 5.25a263 263 0 0 1-5.718 2.469 132 132 0 0 0-7.051 3.309c-4.634 2.33-9.32 4.545-14.012 6.754l-4.914 2.316-2.321 1.094c-1.883.903-3.744 1.85-5.6 2.804C569 246 569 246 567 246l-1 2a134 134 0 0 1-6 3c-2.167.833-2.167.833-3 3h-2a163 163 0 0 0-5.5 3c-5.278 3-5.278 3-7.5 3l-1 2-4 1-1 2-2 .438-2 .562-1 3c-1.625.938-1.625.938-4 2q-1.818 1.052-3.625 2.125C520 275 520 275 518 275l-1 2c-2.062.625-2.062.625-4 1v2h-3l-1 3c-4.333 3-4.333 3-7 3l-1 3c-2.074 1.465-2.074 1.465-4.687 2.938-.902.52-1.803 1.041-2.731 1.578L491 295c-3.37 2.05-5.76 3.64-8 7h-2l-1 2-1.75.313c-3.29 1.005-4.854 3.236-7.25 5.687-7.31 6-7.31 6-10 6l-.75 1.84c-1.464 2.53-2.72 3.314-5.25 4.723-3.023 1.694-3.998 2.434-6 5.437l-3 1c-1.446 1.573-1.446 1.573-2.812 3.438-2.782 3.42-4.987 4.225-9.188 5.562a89 89 0 0 0-2 5c-2.375 1.563-2.375 1.563-5 3a181 181 0 0 0-4 4l-2.937 2.438c-2.864 2.395-5.459 4.89-8.063 7.562-2.56 2.626-5.053 5.042-7.937 7.313-2.504 2.016-4.221 4.181-6.063 6.812-2.647 3.648-4.774 5.121-9 6.875a378 378 0 0 0-5.562 3l-2.754 1.5a142 142 0 0 0-5.286 3.105c-2.1 1.221-3.908 1.995-6.21 2.707-4.048 1.434-6.955 3.669-10.29 6.325-2.47 1.773-4.964 2.63-7.898 3.363v2c-5.294 4-5.294 4-9 4v2l-2.312 1.813c-2.879 2.342-4.248 3.776-5.688 7.187-.234 3.019-.178 5.98 0 9h2v2l1.875.813C340 431 340 431 342 434l-1 2h-3l-.312 1.813C337 440 337 440 335.5 441.438c-1.966 2.047-2.127 3.8-2.5 6.562h-3l-1 4h-2l-.75 2.688c-1.619 4.29-3.927 7.071-7.25 10.187-2.627 2.79-4.184 5.753-6 9.125h-2l-.312 2.75c-.694 3.28-1.389 4.859-3.688 7.25h-2c-1.075 2.652-2.095 5.284-3 8h-2l-.812 2.813c-1.158 3.107-1.96 3.959-4.188 6.187l-.437 2.438c-.708 3.224-2.196 4.348-4.563 6.562v2h-2l-.812 3.813c-.728 3.414-1.73 4.777-4.188 7.187-1.205 2.26-1.205 2.26-2.187 4.688l-1.043 2.449L279 532h-2l-.367 2.227c-.62 2.714-1.46 4.698-2.758 7.148A420 420 0 0 0 267.188 555l-.952 1.998c-1.677 3.356-1.677 3.356-2.236 7.002h-2l-.312 3.25c-.69 3.759-1.4 4.889-3.688 7.75-.36 1.661-.69 3.329-1 5q-1.493 3.504-3 7a137 137 0 0 0-1.062 3.875L252 594l-2 1a75 75 0 0 0-1 5c-1.483 5.638-3.188 10.865-6 16l-.605 1.906c-2.23 3.348-5.576 4.537-9.145 6.219l-2.133 1.05c-3.973 1.928-7.92 3.437-12.117 4.825a102 102 0 0 0-3 3c-2.187.688-2.187.688-4 1-.312-5.62.395-9.892 2.145-15.223 1.266-4.11 2.121-8.298 3.011-12.504.78-3.028 1.793-5.865 2.92-8.778 1.17-3.16 2.216-6.355 3.264-9.558l.636-1.939c.875-2.671 1.75-5.342 2.615-8.017 2.355-7.27 4.792-14.23 8.409-20.981.856-1.97 1.692-3.948 2.5-5.937 3.347-8.222 7.022-16.288 10.813-24.313l1.176-2.49a306 306 0 0 1 9.1-17.596c1.456-2.627 1.456-2.627 2.477-5.39C262 499 262 499 264 497a221 221 0 0 0 3-7h2l.313-2.187c.755-3.09 1.842-5.23 3.687-7.813h2l.188-2.062c.934-3.379 2.412-5.37 4.5-8.133 1.564-2.152 2.792-4.45 4.074-6.778 2.235-3.66 4.862-7.047 7.433-10.476 1.517-2.143 2.723-4.169 3.805-6.551h2l.238-1.617c1.045-3.268 2.941-5.773 4.95-8.508l1.32-1.822c8.21-11.234 16.835-22.183 25.722-32.889 1.797-2.144 1.797-2.144 3.383-4.453L334 395h2l.875-1.812C338 391 338 391 340 388h2l.82-1.785c2.084-3.912 5.208-6.954 8.18-10.215l1.355-1.492c5.77-6.342 11.62-12.555 17.739-18.563 1.732-1.767 3.299-3.577 4.844-5.507.68-.805 1.36-1.61 2.062-2.438h2l.793-1.816c1.29-2.333 2.459-3.458 4.52-5.122 3.945-3.327 7.566-6.891 11.187-10.562 4.674-4.716 9.42-9.219 14.5-13.5l4.68-4.047c3.093-2.667 6.205-5.312 9.32-7.953l2.216-1.88c2.275-1.923 4.56-3.835 6.846-5.745l2.164-1.83c3.442-2.857 6.414-5.236 10.774-6.545v-2c1.95-1.594 1.95-1.594 4.688-3.5a345 345 0 0 0 12.937-9.625C468.612 270.01 473.707 266.43 479 263c2.566-1.702 5.127-3.414 7.688-5.125q2.78-1.857 5.567-3.704a165 165 0 0 0 3.431-2.365C499.687 249 499.687 249 503 249v-2c1.8-1.297 1.8-1.297 4.313-2.75l2.777-1.613a669 669 0 0 1 11.074-6.074c2.905-1.601 5.742-3.293 8.586-5 5.67-3.334 11.5-6.095 17.477-8.817 3.56-1.628 7.04-3.393 10.523-5.184 32.211-16.252 67.694-26.995 103.186-33.038 1.672-.286 3.344-.576 5.011-.889 13.044-2.44 25.674-3.119 38.928-3.01"/><path fill="#A3662F" d="M597.875 279.75c2.657 1.563 3.337 2.257 4.125 5.25a38.8 38.8 0 0 1-2 11c-4.457 4-4.457 4-7 4v2l-1.812.813c-2.184 1.05-2.184 1.05-3.583 2.582-1.714 1.714-3.513 3.064-5.48 4.48-4.205 3.112-7.722 6.642-11.312 10.438C569 322 569 322 567 322v2a207 207 0 0 1-5.117 3.625c-2.144 1.491-2.144 1.491-4.696 4.188L555 334h-2v2c-3.073 3.337-6.334 6.325-10 9h-2l-1 3a318 318 0 0 1-6 5l-1 2h-2l-1 2c-2.024 2.338-4.107 4.618-6.187 6.906-1.85 1.963-1.85 1.963-2.813 4.094h-2l-1 3c-1.437 1.688-1.437 1.688-3 3h-2l-.187 1.688c-.928 2.639-2.312 3.841-4.305 5.738-9.296 9.705-16.962 23.972-20.656 36.828C487 421 487 421 485.586 424.144c-2.115 4.823-3.3 9.888-4.586 14.981l-.798 3.105a615 615 0 0 0-4.483 18.848c-1.086 4.412-2.498 8.713-3.88 13.04-.683 2.346-1.145 4.464-1.401 6.882-.438 3-.438 3-1.844 5.316-1.687 2.84-2.585 5.464-3.531 8.622-1.478 4.613-3.217 8.114-6.063 12.062-1.106 2.302-2.05 4.627-3 7h-2l-.637 2.445c-1.774 4.626-4.372 8.368-7.175 12.43q-1.575 2.307-3.145 4.617l-1.548 2.268c-1.868 2.799-3.625 5.657-5.356 8.542-1.715 2.556-3.94 4.559-6.139 6.698a89 89 0 0 0-2 4l-3 3-1.875 2.875c-2.141 3.149-4.405 5.467-7.125 8.125-10.245 10.623-10.245 10.623-18 23h-2l-.187 1.688c-1.145 3.258-3.37 4.869-5.813 7.312-2.807 3.817-5.496 7.487-7 12h-2l-.738 2.04c-1.54 3.614-3.48 6.944-5.45 10.335-7.386 12.928-13.58 26.43-18.16 40.613a156 156 0 0 1-1.714 4.95c-1.058 3.452-1.704 6.9-2.372 10.445-.54 2.493-1.256 4.825-2.066 7.242-1.627 5.152-2.233 10.31-2.766 15.667-.31 2.96-.707 5.63-1.695 8.446-1.584 4.973-2.035 10.024-2.601 15.2-.13 1.168-.26 2.336-.392 3.54-1.722 16.703-2.409 33.712-1.88 50.494-.234 2.86-1.332 4.923-3.322 6.977-3.89 2.217-8.466 2.036-12.844 2.051v-2l-3-1c-2.24-4.833-2.292-9.386-2.266-14.598l-.009-2.49c-.004-2.659.008-5.316.025-7.975l.012-2.76c.126-23.76 3.255-46.078 7.582-69.407l.436-2.37c.902-4.852 1.904-9.666 3.107-14.453.196-3.377-1.592-5.711-3.383-8.459-2.338-3.868-3.737-8.048-5.293-12.277a128 128 0 0 0-2.613-6.399c-16.258-37.613-18.712-79.666-4.34-118.183 1.199-2.9 2.466-5.762 3.742-8.629 1.236-3.1 2.47-6.202 3.691-9.309 1.741-3.58 3.673-6.873 7.309-8.691 4.633-.386 7.153-.37 11.438 1.5 2.679 2.614 3.656 4.265 3.867 8.027-.737 5.982-3.36 11.927-6.244 17.186-3.414 6.275-5.025 12.887-6.748 19.787l-.932 3.59c-4.826 18.946-5.21 38.904-.381 57.91l.552 2.193c3.193 16.484 3.193 16.484 10.448 30.807a830.842 830.842 0 0 1 9-19.75c.425-.92.85-1.838 1.29-2.785 2.18-4.623 4.315-8.592 7.71-12.465.941-1.623 1.88-3.247 2.793-4.887 1.554-2.72 3.181-5.388 4.832-8.05.59-.958 1.18-1.916 1.79-2.903L371 590h2l.762-1.629c1.513-2.897 3.25-5.58 5.05-8.308l2.02-3.09c2.171-2.978 4.535-5.404 7.168-7.973a93 93 0 0 0 2.938-3.875c2.442-3.339 5.027-6.483 7.765-9.582 1.497-1.724 1.497-1.724 3.297-4.543h2l.754-1.656c1.497-2.817 3.29-5.277 5.183-7.844l2.09-2.844L414 536l1.629-2.344L417 532h2l.809-1.715c1.688-3.239 3.78-6.16 5.851-9.164 1.49-2.17 1.49-2.17 2.34-5.121h2l.688-2.5c1.327-3.539 2.976-6.338 5.015-9.492 4.883-7.56 8.23-15.633 11.422-24.008l.8-2.04c1.246-3.272 2.092-6.086 2.567-9.585C451 465 451 465 452.41 462.203c2.155-4.341 3.022-8.732 4.027-13.453l.649-2.926c1.028-4.656 2.02-9.319 2.984-13.988l.51-2.417q.466-2.212.9-4.432c.93-4.418 2.423-8.084 4.532-12.072 1.436-2.783 2.517-5.672 3.613-8.603 1.424-3.786 2.858-7.562 4.375-11.312-10.814-2.103-21.369-2.075-32.312-1.25l-3.867.281c-12.061.948-23.43 2.77-34.821 6.969l-3.062.938c-3.817 1.38-7.34 3.197-10.938 5.062l-4 2-2.875 1.5c-2.998 1.439-5.952 2.518-9.125 3.5v2l-2.937 1.625c-3.864 2.192-7.5 4.668-11.145 7.203C357 424 357 424 355 424v2l-1.937.313L351 427l-1 3c-1.77.222-3.54.427-5.312.625l-2.989.352C339 431 339 431 336 429v-2h-2c-1.607-3.215-1.403-5.43-1-9 2.308-4.12 4.438-7.48 9-9v-2c6.75-4 6.75-4 9-4v-2c1.906-1.332 1.906-1.332 4.5-2.812 3.278-1.896 6.51-3.816 9.688-5.875 3.467-2.18 7.022-3.745 10.812-5.313 2.438-1.217 4.86-2.46 7.277-3.719C413.346 369.131 454.773 362.635 487 373l2.063-2.5c2.691-3.233 5.462-6.393 8.242-9.55 1.47-1.691 2.902-3.403 4.32-5.137 2.334-2.765 4.818-5.256 7.375-7.813q1.442-1.716 2.875-3.437c8.126-9.39 17.873-17.484 27.121-25.743a136 136 0 0 0 4.692-4.507c5.469-5.47 11.618-10.2 17.609-15.079a249 249 0 0 0 6.89-5.921c3.206-2.838 6.54-5.427 9.989-7.961 1.596-1.183 3.151-2.42 4.699-3.664 4.568-3.628 9.55-3.36 15-1.938"/><path fill="#E3A45B" d="M281 938c2.164 2.06 3.912 4.163 5.602 6.625l1.47 2.124 1.553 2.251c8.268 11.825 17.46 22.543 27.375 33l2.191 2.32c12.407 12.783 30.783 27.636 49.5 27.973a372 372 0 0 0 5.872-.106l3.056-.04q3.69-.054 7.381-.147a598 598 0 0 1 2.93 10.465c2.089 7.78 2.089 7.78 5.382 15.097 1.884 3.837 1.793 4.512.688 8.438a92 92 0 0 1-1.926 4.695l-1.16 2.654-1.226 2.776c-6.586 15.033-6.586 15.033-10.688 30.875l1 2c7.601.309 7.601.309 15-1 .733-1.639 1.384-3.314 2-5a423 423 0 0 1 3.438-7l.908-1.828c4.896-9.772 4.896-9.772 8.654-13.172l1.52 1.477c12.113 11.35 25.983 21.453 40.48 29.523l2.454 1.384C523.446 1131.898 603.96 1144.276 682 1145v1c-51.877 8.078-102.313 6.475-154.383 1.161-21.249-2.166-42.424-3.842-63.773-4.614l-3.308-.122c-5.45-.201-10.9-.39-16.352-.553-28.391-.931-57.876-3.452-80.184-22.872l-1.777-1.348c-15.948-12.403-21.836-32.3-26.293-51.117-5.962-24.824-17.27-47.71-31.93-68.535l-1.187-1.702c-4.745-6.794-9.625-13.408-14.852-19.841C278 963.977 278 963.977 278 961h-2c-1.313-1.529-1.313-1.529-2.785-3.648l-1.608-2.297-1.67-2.43-1.681-2.406c-4.075-5.857-4.075-5.857-5.256-8.219 3.783-1.08 7.03-1.165 10.938-.5 2.76.45 5.273.582 8.062.5z"/><path fill="#E4A55C" d="M1070 396c23.558 35.338 24.407 96.163 25 137l.042 2.869C1095.59 608.454 1073.57 679.9 1043 745l-1.102 2.36c-2.175 4.615-4.491 9.141-6.898 13.64l-1.552 2.91c-8.267 15.399-17.12 30.25-26.883 44.76a580 580 0 0 0-3.932 5.932c-7.988 12.158-16.62 23.794-25.5 35.308a399 399 0 0 0-5.89 7.836l-1.256 1.71a1125 1125 0 0 0-3.28 4.517L965 866h-2l-.75 1.672c-1.492 2.78-3.287 5.11-5.25 7.578l-2.125 2.703L953 880h-2l-.715 1.68c-1.598 2.884-3.604 5.032-5.847 7.445-3.075 3.19-3.075 3.19-5.438 6.875h-2v2h-2l-.623 1.608c-1.95 3.388-4.656 5.935-7.416 8.662l-1.817 1.815q-1.905 1.902-3.818 3.795a1703 1703 0 0 0-5.767 5.747c-6.019 6-12.063 11.886-18.559 17.373q-2.538 2.275-5.062 4.563-2.467 2.22-4.938 4.437l-2.121 1.906C880.235 952 880.235 952 878 952l.214-2.025c.792-8.287.94-16.5.916-24.815-.005-2.25 0-4.501.007-6.752q0-2.16-.004-4.318l-.004-3.91c.017-3.203.017-3.203-1.129-6.18l2-3 1 1 2.313-3c1.3-1.687 1.3-1.687 2.687-3h3l.688-1.75c1.641-2.814 3.748-4.277 6.312-6.25l1-2h2v-2c1.875-2.125 1.875-2.125 4-4h2v-2h2v-2h2v-2h2v-2c1.39-1.297 1.39-1.297 3.25-2.75 3.322-2.733 5.434-5.61 7.75-9.25l3-2 2-3c2-2.687 2-2.687 4-5h2l.25-1.875c.75-2.125.75-2.125 2.813-3.375L938 844v-2h2l.938-1.875L943 836h2l.938-1.875L948 830h2l.75-1.625c1.557-2.957 3.284-5.672 5.25-8.375h2l.813-1.687c1.29-2.513 2.717-4.902 4.187-7.313l1.563-2.812L966 806h2l1-4h2l.813-1.672c1.315-2.579 2.725-5.079 4.187-7.578l1.563-2.703L979 788h2l.75-2.062c1.492-3.507 3.318-6.654 5.25-9.938h2l.842-2.21c1.834-4.418 4.27-8.465 6.658-12.602l1.512-2.678 1.457-2.53 1.326-2.315L1002 752h2l.625-2.875c1.19-4.155 3.304-7.45 5.582-11.094 2.213-3.74 4.169-7.58 6.106-11.468.349-.7.698-1.398 1.059-2.117 1.38-2.789 2.643-5.49 3.628-8.446l2-2a78 78 0 0 0 1.988-4.219l1.134-2.56 1.19-2.721c4.87-11.006 4.87-11.006 7.5-16.062 2.043-3.988 3.557-8.046 5.028-12.274 1.139-3.106 2.39-6.138 3.68-9.183a219 219 0 0 0 8.218-22.852 231 231 0 0 1 2.867-8.852l.828-2.412q.791-2.291 1.6-4.576c1.642-4.782 2.49-9.252 2.967-14.289h2l-.125-2.625c.132-3.571.975-6.003 2.125-9.375a422 422 0 0 0 1.938-7.625l1.039-4.234.516-2.108c.473-1.895.97-3.785 1.468-5.674l.851-3.234.77-2.867c.657-2.282.657-2.282-.582-4.258h2l.148-2.062c.753-9.753 1.85-19.473 3.348-29.141 2.16-16.269 2.7-32.715 2.691-49.11l.003-2.08c0-6.657-.203-13.017-1.19-19.607v-3q-.236-3.75-.5-7.5c-.5-7.095-.5-7.095-.5-10.5q-.388-3.006-.781-6.012c-.257-2.337-.219-4.638-.219-6.988q-.478-2.505-1-5c-.507-2.76-1.004-5.52-1.5-8.281q-.49-2.665-1.031-5.32c-.541-2.768-.884-5.545-1.211-8.344-.244-1.942-.561-3.874-.883-5.805-.332-2.878-.34-4.568.625-7.25M411 992h1l1 11 2.938 1.25q4.23 1.816 8.437 3.688l2.313 1.027q2.255 1.009 4.5 2.039c5.83 2.655 11.764 4.886 17.812 6.996l2.102.742c2.29.787 4.59 1.528 6.898 2.258l3.742 1.191c9.353 2.905 18.637 4.988 28.308 6.5 2.947.467 5.885.987 8.825 1.496 2.806.481 5.273.813 8.125.813q2.102.43 4.188.938c5.241 1.205 10.416 2.062 15.812 2.062q2.188.1 4.375.219c11.107.565 22.19.888 33.313.906l3.525.014 3.299-.006 2.92-.004c2.356-.118 4.298-.544 6.568-1.129h4c3.127-.113 6.25-.278 9.375-.437l2.54-.12 2.483-.127 2.24-.11c2.823-.246 5.57-.72 8.362-1.206q3.384-.53 6.77-1.05c22.46-3.254 22.46-3.254 44.363-9.005 2.576-.85 5.013-1.418 7.68-1.883 4.107-.785 7.947-1.892 11.89-3.269 2.5-.863 5.016-1.65 7.547-2.418l2.39-.727c2.36-.648 2.36-.648 5.094-1.109L698 1012l1-2c2.04-.746 2.04-.746 4.625-1.437 4.306-1.222 8.293-2.707 12.375-4.563l2.324-.973 2.426-1.027 2.234-.937c2.096-1.105 3.442-2.31 5.016-4.063-1.995 11.702-7.323 23.049-12 33.875l-1.22 2.841A328 328 0 0 1 711 1042l-1.424 3.032c-3.688 7.347-3.688 7.347-7.537 10.038l-3.414 1.055-2.024.649q-2.376.74-4.77 1.419c-3.258.929-6.491 1.926-9.73 2.92C648.068 1071.384 612.59 1078.107 577 1079l-2.744.083c-45.93 1.23-110.04-4.669-146.256-37.083l-2.59-2.273c-8.488-7.903-13.857-17.56-14.567-29.335-.039-2.8-.018-5.592.032-8.392l.027-2.926q.036-3.537.098-7.074M835 861h3v2h2c1.471 1.962 2.73 3.906 4 6l1.676 2.719c13.983 23.235 15.775 46.792 12.673 73.217a300 300 0 0 0-.647 6.285c-.304 3.227-.682 6.437-1.077 9.654l-.249 2.97c-.87 6.18-2.729 8.99-7.708 12.788a233 233 0 0 1-4.962 3.276c-2.801 1.791-5.518 3.706-8.257 5.591-2.247 1.51-4.504 3.006-6.761 4.5l-1.795 1.191c-8.202 5.444-16.429 10.805-24.971 15.705-2.21 1.27-4.41 2.558-6.61 3.846-19.217 11.183-38.822 21.596-59.312 30.258l-2-2 1.504-3.27c4.666-10.253 8.763-20.604 12.577-31.2 1.66-4.568 3.381-9.112 5.106-13.655l.973-2.583c3.115-8.194 6.667-16.142 10.59-23.98l1.026-2.051c4.018-7.95 8.281-15.847 13.224-23.261h2v-3h2l.285-1.672c.907-2.952 2.378-5.055 4.153-7.578l1.87-2.703L791 922h2l.688-2.125c1.593-3.491 3.832-5.96 6.312-8.875 1.279-2.216 1.279-2.216 2-4h2l.75-1.562c4.993-9.737 4.993-9.737 8.25-13.438h2l.375-1.812C816 888 816 888 818 885h2l.817-2.21c1.942-4.58 4.825-8.505 7.62-12.602l1.776-2.678 1.72-2.53 1.565-2.315z"/><path fill="#A2652F" d="M540 451c3.438 1.563 3.438 1.563 6 4 1.567 4.794.973 7.986-.98 12.57-1.292 3.078-2.362 6.215-3.457 9.368-1.686 4.75-3.478 9.362-5.668 13.902-2.96 7.145-4.415 14.989-6.3 22.481q-.526 2.092-1.06 4.185c-2.582 10.11-4.692 20.223-6.535 30.494l-.57 2.772c-.542 2.81-.623 5.557-.742 8.415-.42 6.417-1.604 12.382-3.103 18.624-1.624 6.922-2.622 13.876-3.458 20.933-.598 4.72-1.553 8.803-3.345 13.206-1.47 3.854-2.397 7.868-3.407 11.862q-.643 2.51-1.29 5.02l-.56 2.21c-.448 1.67-.978 3.318-1.525 4.958h-2l-.625 3.688c-1.2 5.516-3.567 10.343-6.035 15.394-1.081 2.354-1.845 4.392-2.34 6.918h-2l-.75 2.5c-1.437 4.024-3.274 7.72-5.25 11.5h-2l-.816 1.723c-1.23 2.366-2.62 4.51-4.122 6.715-1.704 2.512-3.304 4.986-4.812 7.625L472 694h-2l-.75 1.625c-1.557 2.957-3.284 5.672-5.25 8.375h-2v2h-2l-.812 1.777c-1.202 2.25-2.487 3.893-4.188 5.785l-1.871 2.098a1085 1085 0 0 1-4.602 5.024C440.4 729.196 440.4 729.196 434 739h-2l-.812 1.77c-1.2 2.253-2.518 3.993-4.188 5.918-.516.601-1.031 1.203-1.562 1.824-2 2.07-3.271 2.46-6.125 2.926-4.71-.622-7.42-2.71-10.313-6.438-1.47-6.368 1.81-11.635 5-17 1.543-2.3 1.543-2.3 3-4h2l.75-2.187c1.373-3.09 2.974-5.323 5.25-7.813h2l.813-2.437L429 709l3-1a97 97 0 0 0 2-4 169 169 0 0 1 4.313-5.437l2.3-2.81C443 693 443 693 445.433 690.603c3.04-3.082 5.668-6.373 8.317-9.79l1.496-1.904c2.614-3.299 2.614-3.299 4.754-6.908h2l.84-2.273c1.05-2.47 2.13-4.22 3.723-6.352 18.15-26.74 25.544-61.123 29.515-92.574 4.188-32.406 10.508-66.669 23.127-96.847.82-2.015 1.57-4.047 2.315-6.09 1.26-3.39 2.75-6.558 4.48-9.739l1.5-2.805c3.127-4.836 7.177-5.113 12.5-4.32"/><path fill="#E3A55C" d="M955.875 185.813A194 194 0 0 1 961 190l1.957 1.617c9.36 8.494 14.46 20.947 18.98 32.446 1.027 2.553 2.063 5.102 3.098 7.652l.765 1.893c4.768 11.778 9.805 23.499 16.204 34.494C1003 270 1003 270 1003 272c-4.041-1.408-6.974-3.361-10.375-5.937-16.39-11.768-38.072-21.457-58.488-22.38l-2.686-.126-2.764-.12-2.822-.13q-3.432-.159-6.865-.307l-.875-3.437L917 236c-11.777-5.889-33.518-.32-46 2l.105-2.055c.36-12.386-3.29-22.285-11.472-31.656-4.512-4.676-8.76-8.48-14.633-11.289v-2l3.672-.113c22.85-.84 45.134-4.873 67.129-11.055 14.156-3.682 27.897-2.599 40.074 5.98"/><path fill="#F5C178" d="M835 861h3v2h2c1.471 1.962 2.73 3.906 4 6l1.676 2.719C853.526 884.764 860.255 900.44 859 916l-.187 3.375C858 922 858 922 855.688 923.625L853 925l-2.062 2.063C849 929 849 929 847.063 929.938c-2.323 1.058-2.323 1.058-4.563 3.625-2.45 2.389-3.298 2.865-6.5 3.437l-1 2a373 373 0 0 1-6 4l-2.375 1.938C817.636 952 817.636 952 814 952l-1 2-4 2-1.375 1.438C805.013 959.949 801.684 962 798 962l-1 2c-5.673 4.113-12.066 8.572-19 10v2l-20 10c-1.328-3.43-.987-5.565.438-8.812A371 371 0 0 1 761 972l1.77-3.648c4.899-10.038 10.027-20.048 16.23-29.352h2v-3h2l.285-1.672c.907-2.952 2.378-5.055 4.153-7.578l1.87-2.703L791 922h2l.688-2.125c1.593-3.491 3.832-5.96 6.312-8.875 1.279-2.216 1.279-2.216 2-4h2l.75-1.562c4.993-9.737 4.993-9.737 8.25-13.438h2l.375-1.812C816 888 816 888 818 885h2l.817-2.21c1.942-4.58 4.825-8.505 7.62-12.602l1.776-2.678 1.72-2.53 1.565-2.315z"/><path fill="#F8D4A2" d="m237 650-.937 3.625c-.605 2.405-1.119 4.734-1.5 7.188-.694 3.928-1.809 7.681-2.942 11.503-.619 2.674-.652 4.954-.621 7.684l-2 7a100 100 0 0 0 0 5 530 530 0 0 1-1 5v4q-.43 2.102-.937 4.188c-1.436 6.854-1.616 13.79-1.954 20.764-.152 2.854-.377 5.7-.609 8.548-.92 11.83-1.593 23.569-1.625 35.438l-.014 2.868c.012 5.38.296 10.642.925 15.986.209 2.153.246 4.234.214 6.395-.09 3.696-.09 3.696.438 6.856.851 5.99 1.302 12.012 1.812 18.039l.25 2.863.219 2.579c.288 2.534.752 4.982 1.281 7.476.77 4.24 1.291 8.469 1.719 12.754.306 2.45.793 4.826 1.281 7.246q.531 2.845 1.05 5.691c2.533 13.795 5.145 27.567 7.95 41.309-2.296-2.108-3.703-4.048-5.05-6.852l-1.11-2.305-1.153-2.468c-.395-.84-.791-1.679-1.2-2.544-2.905-6.285-5.38-12.647-7.547-19.222-.99-3-2.036-5.796-3.475-8.613-1.684-3.444-2.63-6.916-3.528-10.621-1.108-4.795-1.108-4.795-2.94-9.34-1.009-2.06-1.494-3.817-1.927-6.062l-.464-2.363-.481-2.548-.522-2.709q-.54-2.81-1.075-5.623a492 492 0 0 0-1.5-7.418c-1.12-5.418-2.082-10.86-3.028-16.312l-.663-3.668c-3.66-20.574-4.805-40.814-4.774-61.707v-3.527c.025-12.55.406-24.697 2.437-37.098q.405-3.141.781-6.285l.364-2.916q.361-2.913.71-5.828c.337-2.666.73-5.316 1.145-7.971l.457-3.387c2.61-4.421 7.09-5.562 11.73-7.363l2.83-1.168c13.867-5.64 13.867-5.64 16.983-4.082"/><path fill="#C28647" d="m696 810 .738 1.7c1.502 2.738 3.37 4.782 5.45 7.112 16.85 20.4 20.707 51.545 18.812 77.188-2.203 20.48-2.203 20.48-8.562 26.375-3.784 2.522-5.879 2.815-10.438 2.625l-2-1v-2h-2c-2.308-4.428-1.919-7.984-1.187-12.75q.303-2.296.597-4.594l.305-2.355c2.873-23.219.848-46.603-10.715-67.301h-4c1.332-3.995 3.058-6.058 6-9v-3l1-3h2l1-6h2z"/><path fill="#C18546" d="M955 940.063c2 .937 2 .937 3.125 3.562L959 947l1.375 3.438c.83 4.725-.818 6.82-3.375 10.562q-1.41 2.499-2.812 5c-2.474 4.139-5.226 7.37-8.77 10.625-1.538 1.34-1.538 1.34-2.418 3.375h-2v2h-2v2h-2v2c-1.46 1.508-1.46 1.508-3.375 3.125l-1.898 1.633C930 992 930 992 928 992v2c-6.162 5.324-13.122 9.838-19.875 14.375l-1.871 1.262C895.1 1017.033 895.1 1017.033 888 1016c-2.901-1.975-4.687-3.383-5.375-6.937-.12-3.983.25-7.621 2.375-11.063 2.625-1.312 2.625-1.312 5-2v-2l5-2v-2l1.875-.875c2.258-1.062 2.258-1.062 4.125-3.125l5-4a650 650 0 0 0 7-6l2.05-1.766c3.046-2.637 6.033-5.265 8.825-8.172C926 964 926 964 928 964l.25-1.875c.75-2.125.75-2.125 2.813-3.375L933 958v-2h2v-2h2v-2h2l1-4h3v-2h2l1-2 3-1 2-2c2-1 2-1 4-.937"/><path fill="#A46730" d="M329.188 815.875 333 816v2l1.875.813C337 820 337 820 339 823c.124 2.494.137 4.872.055 7.36q-.043 2.27-.083 4.54l-.05 2.402C337.61 862.147 337.61 862.147 345 885c.63 2.106 1.186 4.235 1.688 6.375l.824 3.398c.819 5.413-.46 8.768-3.512 13.227l-1.187 1.813c-2.491 1.631-4.814 1.918-7.758 1.761-3.427-.957-4.795-2.881-6.684-5.808-9.079-18.314-11.334-40.914-12.203-61.03q-.105-2.236-.248-4.473c-.885-13.996-.885-13.996 2.889-19.17 3.106-3.39 5.68-5.372 10.378-5.218"/><path fill="#A3662F" d="M732 220.5c2.932 3.665 2.435 6.976 2 11.5l-1.937.813c-2.394 1.074-2.394 1.074-3.063 4.187-5.977 2.576-12.14 4.385-18.504 5.754-5.574 1.391-10.703 3.784-15.933 6.121l-2.987 1.316q-2.91 1.286-5.818 2.58-2.686 1.197-5.377 2.377l-2.412 1.059-2.108.921c-2.103.95-2.103.95-4.923 2.685-3.951 1.597-6.905 1.52-10.938.187-2.919-2.007-4.659-3.376-5.406-6.934-.145-3.185.294-5.722 1.281-8.754 3.382-3.68 7.611-5.29 12.125-7.312l3.125-1.473A423 423 0 0 1 693 226l2.07-.836c26.014-10.122 26.014-10.122 36.93-4.664"/><path fill="#CE914E" d="M263 617c3.096 2.858 3.912 4.299 4.438 8.5-.603 4.819-2.015 7.242-5.633 10.441-3.046 2.236-6.052 3.755-9.493 5.309l-3.449 1.578C246 644 246 644 244 644l-1 3c-2.08.767-2.08.767-4.809 1.363-6.43 1.595-12.233 4.093-18.254 6.824q-3.046 1.37-6.097 2.731l-2.676 1.212C209 660 209 660 207 660l-1 2c.483-10.52 2.828-20.728 5-31l1 3c2.992-.775 2.992-.775 6-2l1-3c1.979-.727 3.985-1.38 6-2 2.712-1.224 5.352-2.581 8-3.937l2.078-1.053c3.055-1.548 6.104-3.104 9.145-4.678 6.794-3.259 12.022-4.438 18.777-.332"/><path fill="#F8D099" d="M946 181v2a623 623 0 0 1-12 6l-2.59 1.336c-23.062 10.89-53.488 11.417-78.41 7.664-2.531-1.121-2.531-1.121-4.5-2.437l-2.031-1.31L845 193v-2l3.672-.113c22.85-.84 45.134-4.873 67.129-11.055 10.34-2.69 20.263-3.047 30.199 1.168"/><path fill="#F6EBDA" d="M958 161c-3.784 1.261-4.828.468-8.5-.937-15.994-5.124-32.58-1.518-48.457 2.402l-3.238.794a533 533 0 0 0-6.235 1.583c-15.62 3.929-31.17 4.533-47.195 4.47l-2.898-.004c-30.078-.083-60.466-1.316-90.149-6.44-8.863-1.516-17.718-2.026-26.7-2.071l-2.884-.021c-3.06-.018-6.12-.024-9.182-.026l-3.178-.002c-16.642.017-32.921.6-49.384 3.252l-3.252.52c-33.8 5.599-71.816 14.673-101.854 31.672C553 197 553 197 550 196c12.354-6.434 24.833-11.807 38.121-16.043 2.287-.76 4.527-1.572 6.777-2.43C619.14 168.372 645.372 163.23 671 160l2.7-.355c31.18-3.968 63.188-2.199 94.092 2.886 13.658 2.154 27.413 2.784 41.208 3.469l6.234.34c31.634 1.643 60.803-.156 91.578-7.778 17.414-4.253 34.641-6.445 51.188 2.438"/><path fill="#F5EDE1" d="m440 263 2 1q-3.561 2.91-7.125 5.813l-2.192 1.786a766 766 0 0 1-13.995 11.089c-5.243 4.074-10.174 8.39-15.04 12.914-2.66 2.41-5.405 4.658-8.21 6.898-4.6 3.71-8.762 7.687-12.856 11.945a119 119 0 0 1-6.254 5.739c-5.026 4.356-9.7 9.042-14.39 13.753l-2.604 2.592c-4.439 4.446-8.741 8.946-12.81 13.733-1.603 1.828-3.288 3.536-5.024 5.238-2.935 2.896-5.677 5.9-8.367 9.023a725 725 0 0 1-5.078 5.829c-5.898 6.722-11.632 13.523-17.105 20.597-2.853 3.682-5.799 7.258-8.825 10.801-5.93 7.058-11.233 14.55-16.567 22.062q-2.168 3.043-4.363 6.067c-4.984 6.89-9.73 13.881-14.195 21.121l-2.172 3.5c-3.59 5.65-3.59 5.65-6.828 11.5h-2l-.742 2.57c-1.376 3.75-3.242 6.96-5.383 10.305l-1.129 1.797A803 803 0 0 1 246 485c-1-3-1-3-.23-4.787l1.257-1.986 1.39-2.23 1.52-2.372 1.54-2.452q1.54-2.456 3.092-4.905a366 366 0 0 0 3.595-5.819C263.198 452.132 268.54 444.04 274 436l1.7-2.504c4.593-6.654 9.429-13.135 14.238-19.634l1.757-2.374 1.7-2.29c1.51-2.068 2.961-4.169 4.41-6.28L300 400h2l2-5h2l.813-2.437L308 390l3-1c1.05-1.85 1.05-1.85 2-4 6.51-9.173 13.963-18.142 22-26q3.441-3.402 6.875-6.812l1.777-1.752c3-2.985 5.885-6.013 8.641-9.225 4.467-5.17 9.306-9.955 14.144-14.774l2.737-2.748c4.575-4.568 9.192-9.012 14.124-13.195 1.763-1.547 3.39-3.178 5.014-4.869 3.72-3.788 7.81-7.054 11.942-10.379 2.42-1.98 4.747-4.016 7.058-6.121 4.274-3.846 8.76-7.371 13.298-10.896 5.126-3.99 10.107-8.13 15.062-12.33C438 264 438 264 440 263"/><path fill="#D19450" d="m227 627 1 6h-3v6h-2v3l-3 1c-.947-2.605-1.302-4.307-.176-6.89 1.005-1.736 2.087-3.426 3.176-5.11l-1.39 1.129-1.86 1.433-1.828 1.442c-1.922.996-1.922.996-4.156.648L212 635v2l4 2v2c1.458 1.625 1.458 1.625 3 3l-4 4-2-4-1 6 2-1 1.313 2 1.687 2h3l1-2h3c-1 3-1 3-4.09 4.605a243 243 0 0 1-3.847 1.582l-1.96.827C209.31 660 209.31 660 207 660l-1 2c.483-10.52 2.828-20.728 5-31l1 3c2.992-.775 2.992-.775 6-2l1-3c2.726-1.102 5.041-2 8-2m-2 8 2 1-1 2z"/><path fill="#CB8F4C" d="M251 617c6.055-.195 6.055-.195 8 0l2 2 3 1c.224 1.414.428 2.832.625 4.25l.352 2.39c.026 2.682-.611 4.087-1.977 6.36h-2l-1 2c-2.932 1.981-5.511 3.354-9 4-.7-3.153-1-5.727-1-9l2-1c1.445-3.265 1.445-3.265 2-7-1.226-2.91-1.226-2.91-3-5"/><path fill="#E2A45B" d="M263 617c3.096 2.858 3.912 4.299 4.438 8.5-.632 5.051-2.238 7.39-5.938 10.813C259 638 259 638 256 638c1-3 1-3 2.875-4l2.125-1c1.854-1.103 1.854-1.103 3-3 .25-3.625.25-3.625 0-7h-2c-1.625-2-1.625-2-3-4l-2 1v-3h-3l-1 2v-2l-2.25 2c-3.678 2.675-6.284 2-10.75 2l-1 2-2-2c17.149-9.38 17.149-9.38 26-4"/><path fill="#D59853" d="m248 640 2 2-2.937.813L244 644l-1 3c-2.293.844-2.293.844-5.187 1.5-4.303 1.05-7.865 2.475-11.813 4.5l-2-1 1.375-1.687c1.662-2.366 2.646-4.603 3.625-7.313h2l1-2 3 2v3c3.584-1.235 3.584-1.235 6.5-3.562 2.052-1.967 3.704-2.223 6.5-2.438"/><path fill="#F4E6D1" d="m273 438 2 1-1.469 2.168C265.232 453.265 265.232 453.265 258 466h-2l-.742 2.57c-1.376 3.75-3.242 6.96-5.383 10.305l-1.129 1.797A803 803 0 0 1 246 485c-1-3-1-3-.23-4.787l1.257-1.986 1.39-2.23 1.52-2.372 3.083-4.91 1.545-2.438a346 346 0 0 0 3.634-5.898c4.635-7.681 9.624-15.058 14.801-22.379"/><path fill="#E6AD65" d="m545 342 2 1c-2.217 3.049-4.576 5.574-7.437 8-6.21 5.29-11.84 11.198-17.563 17 0-3.932 1.394-5.164 4-8h2l.813-1.937C530 356 530 356 533 355l1-3c1.438-1.241 2.88-2.478 4.367-3.66 2.384-1.956 4.486-4.13 6.633-6.34m-26 26 2 1-2 1zm-3 3 2 1-3 2z"/><path fill="#F4EADB" d="M584 183c-2.795 1.863-5.308 3.043-8.402 4.313l-3.198 1.32-3.337 1.367q-3.265 1.342-6.528 2.688l-2.925 1.199c-2.576 1.044-2.576 1.044-4.768 2.32C553 197 553 197 550 196c7.238-3.77 14.505-7.351 22.063-10.437l3.66-1.497c3.018-.982 5.142-1.309 8.277-1.066"/><path fill="#F4E8D5" d="m501 222 2 1a2510 2510 0 0 1-9.176 5.84c-2.008 1.277-4.01 2.565-6.012 3.851l-4.312 2.746-2.104 1.361C476.34 240 476.34 240 473 240c19.055-14.358 19.055-14.358 28-18"/><path fill="#C98C4B" d="m245 633 3 1-1 2-2-1zm-1 3 2 4c-3.49 4.004-5.65 5.627-11 6l-1-5h4l2-2h2v-2z"/><path fill="#F5E8D6" d="m402 294 2 1-2.965 2.527c-7.29 6.247-14.405 12.52-21.035 19.473 0-3 0-3 2.063-5.25l1.398-1.309c1.636-1.532 3.173-3.138 4.726-4.753 4.278-4.296 9.027-7.98 13.813-11.688"/><path fill="#F3BF78" d="M845 191h11l-1 3v-2l-2 1 1 2c3.03.658 3.03.658 6 1v2c-5.717.596-8.7-.598-13.496-3.71L845 193z"/><path fill="#F4E8D6" d="m465 245 2 1q-3.78 2.846-7.562 5.688A1478.474 1478.474 0 0 1 451 258c-.667.497-1.334.996-2.02 1.51C444.233 263 444.233 263 442 263c1.292-3.876 2.794-4.363 6.25-6.437A91 91 0 0 0 459 249c1.97-1.385 3.98-2.685 6-4"/><path fill="#E4A65E" d="m222 650 2 1c-1 3-1 3-4.09 4.605a243 243 0 0 1-3.847 1.582l-1.96.827C209.31 660 209.31 660 207 660l-1 2v-3l2-1 2-3h3l2-4 2 2h3l1-2z"/><path fill="#E1A35C" d="M227 627v2l-2.687 1.25c-3.348 1.613-3.348 1.613-5.938 4C216 636 216 636 213.688 635.75L212 635l-1 3v-7l1 3c2.992-.775 2.992-.775 6-2l1-3c2.726-1.102 5.041-2 8-2"/><path fill="#D39551" d="m225 643 3 1c-.75 1.938-.75 1.938-2 4-3.051 1.144-5.764 1-9 1v-2h2l1-3h4zm-10 6h2l-1 3z"/><path fill="#E5A65D" d="m248 640 2 2-2.937.813L244 644l-1 3-7 1-1-2 2.313-.812c2.678-.98 2.678-.98 4.187-2.75 2.052-1.967 3.704-2.223 6.5-2.438"/><path fill="#D59752" d="m258 620 1 2h2l1 6-3 1c-2.125-6.75-2.125-6.75-1-9m-3 4h2l-1 2z"/><path fill="#C68A49" d="M207 651c3.875 1.75 3.875 1.75 5 4a91 91 0 0 1-4 4h-2z"/><path fill="#F4E4CC" d="M584 183c-2.523 1.682-4.81 2.901-7.562 4.125l-2.38 1.07C572 189 572 189 570 189c1-3 1-3 2.672-3.95 3.891-1.382 7.13-2.444 11.328-2.05"/><path fill="#CD904E" d="M506 1094c1.626.06 3.251.149 4.875.25l2.742.14c2.383.61 2.383.61 3.703 2.657L518 1099q-2.44-.676-4.875-1.375l-2.742-.773C508 1096 508 1096 506 1094"/><path fill="#D79954" d="M729 217v2l-3.437-.062c-4.57-.009-9.035.475-13.563 1.062l1-2c2.328-.668 2.328-.668 5.25-1.187 1.43-.27 1.43-.27 2.89-.543 2.886-.272 5.068.012 7.86.73"/><path fill="#E3A45C" d="m237 622-1 4h-3l-2 2c-2.125-.375-2.125-.375-4-1 6.129-5 6.129-5 10-5"/><path fill="#E3A861" d="m578 312 2 1-3 2zm-4 4 2 1-5 5-2-2z"/><path fill="#E3A962" d="m635 896 2 2-6 5a56.5 56.5 0 0 1 4-7m-6 7 2 1-3 2z"/><path fill="#E5AC65" d="m489 845 2 2-6 5c1.074-2.915 1.778-4.778 4-7"/></svg>